<svg width="480" height="716" viewBox="0 0 480 716" fill="none" xmlns="http://www.w3.org/2000/svg">
<path d="M68.3829 141C62.3225 141 58.0129 140.127 55.4541 138.381C52.8953 136.501 51.3465 134.151 50.8078 131.331C50.2691 128.377 49.9998 125.423 49.9998 122.469V18.33C49.9998 11.3471 51.3465 6.58001 54.04 4.02858C56.8682 1.34286 61.8511 0 68.9889 0H142.925C146.023 0 148.918 0.268572 151.612 0.805716C154.44 1.34286 156.73 2.88715 158.48 5.43857C160.231 7.99 161.106 12.3543 161.106 18.5314C161.106 24.5743 160.164 28.8714 158.278 31.4229C156.528 33.9743 154.238 35.5186 151.41 36.0557C148.582 36.5929 145.619 36.8614 142.521 36.8614H86.968V54.7886H124.138C127.236 54.7886 129.997 55.0571 132.421 55.5943C134.98 55.9971 136.932 57.34 138.279 59.6229C139.761 61.7714 140.501 65.5314 140.501 70.9029C140.501 76.0057 139.761 79.6314 138.279 81.78C136.798 83.9286 134.778 85.2043 132.219 85.6071C129.795 86.01 127.034 86.2114 123.936 86.2114H86.968V122.67C86.968 125.624 86.6986 128.511 86.1599 131.331C85.6212 134.151 84.0725 136.501 81.5137 138.381C78.9548 140.127 74.5779 141 68.3829 141Z" fill="#FF92A4"/>
<path d="M222.258 140.597C215.793 140.597 209.733 139.321 204.077 136.77C198.555 134.219 193.707 130.66 189.532 126.094C185.357 121.394 182.125 115.956 179.835 109.779C177.546 103.601 176.401 96.8871 176.401 89.6357V56.8029C176.401 53.7143 176.67 50.8271 177.209 48.1414C177.748 45.3214 179.297 43.0386 181.855 41.2929C184.414 39.4129 188.724 38.4729 194.784 38.4729C200.979 38.4729 205.289 39.4129 207.713 41.2929C210.272 43.0386 211.821 45.3214 212.359 48.1414C212.898 50.9614 213.167 53.9157 213.167 57.0043V89.6357C213.167 92.7243 213.706 95.3429 214.783 97.4914C215.995 99.64 217.679 101.319 219.834 102.527C222.123 103.601 224.749 104.139 227.712 104.139C230.675 104.139 233.234 103.534 235.389 102.326C237.543 101.117 239.227 99.4386 240.439 97.29C241.651 95.1414 242.257 92.59 242.257 89.6357V56.6014C242.257 53.5129 242.526 50.6257 243.065 47.94C243.604 45.12 245.153 42.8371 247.711 41.0914C250.27 39.3457 254.58 38.4729 260.64 38.4729C266.835 38.4729 271.145 39.4129 273.569 41.2929C276.128 43.0386 277.677 45.3214 278.215 48.1414C278.754 50.9614 279.023 53.8486 279.023 56.8029V123.073C279.023 126.027 278.754 128.847 278.215 131.533C277.677 134.219 276.128 136.434 273.569 138.18C271.01 139.926 266.7 140.799 260.64 140.799C256.196 140.799 252.694 140.261 250.135 139.187C247.711 138.247 245.961 137.039 244.883 135.561C243.806 133.95 243.132 132.406 242.863 130.929C242.728 129.317 242.661 127.974 242.661 126.9L246.095 127.907C246.095 127.907 245.557 128.579 244.479 129.921C243.402 131.13 241.786 132.607 239.631 134.353C237.611 135.964 235.119 137.441 232.156 138.784C229.328 139.993 226.029 140.597 222.258 140.597Z" fill="#FF92A4"/>
<path d="M325.559 140.799C319.498 140.799 315.189 139.926 312.63 138.18C310.071 136.3 308.522 133.95 307.984 131.13C307.58 128.31 307.378 125.423 307.378 122.469V56.1986C307.378 53.2443 307.647 50.4243 308.186 47.7386C308.724 45.0529 310.273 42.9043 312.832 41.2929C315.391 39.5471 319.7 38.6743 325.761 38.6743C331.282 38.6743 335.255 39.4129 337.679 40.89C340.238 42.2329 341.854 43.9114 342.528 45.9257C343.201 47.94 343.47 49.82 343.336 51.5657C343.336 53.1771 343.47 54.1843 343.74 54.5871L342.124 55.7957C341.989 53.7814 342.73 51.7671 344.346 49.7529C346.097 47.7386 348.319 45.9257 351.012 44.3143C353.84 42.5686 356.803 41.2257 359.901 40.2857C363.133 39.2114 366.163 38.6743 368.991 38.6743C375.725 38.6743 381.651 39.95 386.768 42.5014C391.886 45.0529 396.128 48.6786 399.495 53.3786C402.997 57.9443 405.623 63.3157 407.374 69.4929C409.124 75.67 410 82.3843 410 89.6357V122.67C410 125.624 409.73 128.511 409.192 131.331C408.653 134.151 407.104 136.434 404.545 138.18C402.121 139.926 397.812 140.799 391.617 140.799C385.422 140.799 381.045 139.926 378.486 138.18C375.927 136.3 374.378 133.95 373.84 131.13C373.301 128.31 373.032 125.423 373.032 122.469V89.6357C373.032 86.5471 372.426 83.9286 371.213 81.78C370.136 79.6314 368.52 78.02 366.365 76.9457C364.345 75.7371 361.786 75.1329 358.689 75.1329C355.726 75.1329 353.1 75.7371 350.81 76.9457C348.655 78.1543 346.972 79.8329 345.76 81.9814C344.548 84.13 343.942 86.6814 343.942 89.6357V122.67C343.942 125.624 343.672 128.511 343.134 131.331C342.595 134.151 341.046 136.434 338.487 138.18C336.063 139.926 331.754 140.799 325.559 140.799Z" fill="#FF92A4"/>
<path d="M57.2756 232.084C54.877 232.084 53.1713 231.737 52.1585 231.042C51.1458 230.294 50.5328 229.359 50.3196 228.236C50.1064 227.06 49.9998 225.885 49.9998 224.709V183.262C49.9998 182.086 50.1064 180.937 50.3196 179.814C50.5328 178.692 51.1458 177.783 52.1585 177.089C53.1713 176.34 54.9036 175.966 57.3556 175.966C59.8075 175.966 61.5132 176.34 62.4727 177.089C63.4854 177.783 64.0984 178.692 64.3116 179.814C64.5248 180.937 64.6314 182.113 64.6314 183.342V219.578H84.1403C85.1531 219.578 86.1125 219.658 87.0187 219.819C87.9781 219.979 88.751 220.513 89.3374 221.422C89.977 222.277 90.2968 223.747 90.2968 225.831C90.2968 227.862 89.977 229.332 89.3374 230.241C88.6977 231.096 87.8982 231.603 86.9387 231.764C86.0326 231.977 85.0731 232.084 84.0604 232.084H57.2756Z" fill="#FF92A4"/>
<path d="M120.946 232.966C116.949 232.966 113.564 232.325 110.792 231.042C108.02 229.706 105.782 227.996 104.076 225.911C102.37 223.774 101.118 221.475 100.318 219.017C99.5184 216.558 99.1187 214.18 99.1187 211.882C99.1187 207.66 100.051 203.945 101.917 200.738C103.783 197.532 106.368 195.02 109.673 193.203C112.977 191.385 116.762 190.477 121.026 190.477C124.331 190.477 127.156 191.011 129.501 192.08C131.847 193.149 133.739 194.512 135.178 196.169C136.671 197.826 137.763 199.589 138.456 201.46C139.149 203.331 139.496 205.068 139.496 206.671C139.496 209.717 138.749 212.042 137.257 213.646C135.764 215.249 133.846 216.051 131.5 216.051H114.47C114.683 216.906 115.11 217.654 115.749 218.295C116.442 218.883 117.295 219.364 118.308 219.738C119.32 220.059 120.413 220.219 121.586 220.219C122.759 220.219 123.798 220.166 124.704 220.059C125.61 219.899 126.383 219.712 127.023 219.498C127.716 219.284 128.329 219.07 128.862 218.857C129.448 218.643 129.954 218.482 130.381 218.376C130.861 218.215 131.314 218.135 131.74 218.135C132.7 218.135 133.579 218.456 134.379 219.097C135.178 219.738 135.898 220.7 136.537 221.983C136.91 222.678 137.177 223.346 137.337 223.987C137.497 224.575 137.577 225.136 137.577 225.671C137.577 227.274 136.91 228.61 135.578 229.679C134.299 230.748 132.433 231.55 129.981 232.084C127.529 232.672 124.518 232.966 120.946 232.966ZM114.47 208.515H123.425C124.171 208.515 124.704 208.354 125.024 208.034C125.397 207.713 125.584 207.232 125.584 206.591C125.584 205.896 125.37 205.308 124.944 204.827C124.571 204.346 124.038 203.999 123.345 203.785C122.652 203.518 121.826 203.384 120.866 203.384C119.587 203.384 118.468 203.651 117.508 204.186C116.549 204.667 115.802 205.308 115.269 206.11C114.79 206.858 114.523 207.66 114.47 208.515Z" fill="#FF92A4"/>
<path d="M181.964 231.924C179.565 231.924 177.78 231.523 176.607 230.722C175.488 229.92 174.955 229.011 175.008 227.996H176.127C175.861 228.37 175.328 228.878 174.528 229.519C173.782 230.107 172.769 230.668 171.49 231.203C170.211 231.684 168.638 231.924 166.773 231.924C164.374 231.924 162.055 231.39 159.817 230.321C157.631 229.198 155.659 227.675 153.9 225.751C152.194 223.827 150.835 221.662 149.822 219.257C148.81 216.799 148.303 214.233 148.303 211.561C148.303 208.942 148.81 206.43 149.822 204.025C150.835 201.62 152.221 199.482 153.98 197.612C155.739 195.688 157.711 194.191 159.897 193.122C162.082 192 164.374 191.439 166.773 191.439C168.585 191.439 170.104 191.706 171.33 192.241C172.609 192.775 173.622 193.363 174.368 194.004C175.168 194.646 175.701 195.18 175.967 195.608H175.088C175.035 194.271 175.568 193.229 176.687 192.481C177.86 191.733 179.645 191.359 182.044 191.359C184.443 191.359 186.122 191.733 187.081 192.481C188.094 193.176 188.707 194.084 188.92 195.207C189.133 196.329 189.24 197.478 189.24 198.654V224.709C189.24 225.885 189.133 227.034 188.92 228.156C188.707 229.278 188.094 230.187 187.081 230.882C186.122 231.577 184.416 231.924 181.964 231.924ZM168.772 217.413C169.784 217.413 170.69 217.146 171.49 216.612C172.343 216.077 173.009 215.383 173.489 214.527C174.022 213.619 174.288 212.657 174.288 211.641C174.288 210.572 174.022 209.61 173.489 208.755C173.009 207.9 172.343 207.205 171.49 206.671C170.637 206.136 169.678 205.869 168.612 205.869C167.546 205.869 166.559 206.136 165.653 206.671C164.8 207.205 164.107 207.927 163.574 208.835C163.041 209.691 162.775 210.653 162.775 211.722C162.775 212.737 163.041 213.672 163.574 214.527C164.161 215.383 164.907 216.077 165.813 216.612C166.719 217.146 167.705 217.413 168.772 217.413Z" fill="#FF92A4"/>
<path d="M207.601 232.084C205.202 232.084 203.496 231.737 202.484 231.042C201.471 230.294 200.858 229.359 200.645 228.236C200.485 227.06 200.405 225.885 200.405 224.709V198.574C200.405 197.345 200.511 196.196 200.725 195.127C200.938 194.004 201.551 193.096 202.564 192.401C203.576 191.706 205.282 191.359 207.681 191.359C210.026 191.359 211.678 191.679 212.638 192.321C213.651 192.962 214.264 193.684 214.477 194.485C214.69 195.233 214.797 195.821 214.797 196.249L213.517 195.768C213.517 195.768 213.73 195.527 214.157 195.046C214.583 194.565 215.196 194.004 215.996 193.363C216.849 192.722 217.835 192.16 218.954 191.679C220.127 191.198 221.433 190.958 222.872 190.958C223.352 190.958 223.938 191.011 224.631 191.118C225.377 191.172 226.15 191.305 226.95 191.519C227.802 191.733 228.575 192.053 229.268 192.481C230.015 192.909 230.601 193.47 231.027 194.165C231.507 194.859 231.747 195.714 231.747 196.73C231.747 199.402 231.161 201.674 229.988 203.544C228.869 205.415 227.376 206.35 225.51 206.35C224.498 206.35 223.778 206.297 223.352 206.19C222.925 206.03 222.605 205.896 222.392 205.789C222.232 205.629 222.019 205.495 221.753 205.388C221.539 205.228 221.113 205.148 220.473 205.148C219.674 205.148 218.928 205.255 218.235 205.468C217.595 205.629 217.009 205.896 216.476 206.27C215.996 206.644 215.623 207.098 215.356 207.633C215.09 208.114 214.956 208.648 214.956 209.236V224.869C214.956 226.045 214.85 227.194 214.637 228.316C214.423 229.439 213.81 230.347 212.798 231.042C211.785 231.737 210.053 232.084 207.601 232.084Z" fill="#FF92A4"/>
<path d="M248.509 232.004C246.11 232.004 244.404 231.657 243.392 230.962C242.379 230.214 241.766 229.278 241.553 228.156C241.393 227.034 241.313 225.885 241.313 224.709V198.333C241.313 197.158 241.419 196.035 241.633 194.966C241.846 193.897 242.459 193.042 243.471 192.401C244.484 191.706 246.19 191.359 248.589 191.359C250.774 191.359 252.346 191.653 253.306 192.241C254.319 192.775 254.958 193.443 255.225 194.245C255.491 195.046 255.598 195.795 255.545 196.489C255.545 197.131 255.598 197.532 255.705 197.692L255.065 198.173C255.012 197.371 255.305 196.57 255.944 195.768C256.637 194.966 257.517 194.245 258.583 193.603C259.702 192.909 260.875 192.374 262.101 192C263.38 191.572 264.579 191.359 265.699 191.359C268.364 191.359 270.709 191.866 272.735 192.882C274.76 193.897 276.439 195.34 277.772 197.211C279.158 199.028 280.197 201.166 280.89 203.624C281.583 206.083 281.93 208.755 281.93 211.641V224.789C281.93 225.965 281.823 227.114 281.61 228.236C281.397 229.359 280.784 230.267 279.771 230.962C278.811 231.657 277.106 232.004 274.654 232.004C272.202 232.004 270.469 231.657 269.457 230.962C268.444 230.214 267.831 229.278 267.618 228.156C267.405 227.034 267.298 225.885 267.298 224.709V211.641C267.298 210.412 267.058 209.37 266.578 208.515C266.152 207.66 265.512 207.018 264.659 206.591C263.86 206.11 262.847 205.869 261.621 205.869C260.448 205.869 259.409 206.11 258.503 206.591C257.65 207.072 256.984 207.74 256.504 208.595C256.024 209.45 255.784 210.466 255.784 211.641V224.789C255.784 225.965 255.678 227.114 255.465 228.236C255.251 229.359 254.638 230.267 253.626 230.962C252.666 231.657 250.961 232.004 248.509 232.004Z" fill="#FF92A4"/>
<path d="M300.591 232.084C298.193 232.084 296.487 231.737 295.474 231.042C294.462 230.294 293.849 229.359 293.635 228.236C293.476 227.114 293.396 225.965 293.396 224.789V198.654C293.396 197.478 293.502 196.356 293.715 195.287C293.929 194.165 294.542 193.256 295.554 192.561C296.567 191.813 298.273 191.439 300.671 191.439C303.07 191.439 304.749 191.813 305.709 192.561C306.721 193.256 307.334 194.165 307.548 195.287C307.761 196.409 307.867 197.585 307.867 198.814V224.869C307.867 226.045 307.761 227.194 307.548 228.316C307.334 229.439 306.721 230.347 305.709 231.042C304.749 231.737 303.043 232.084 300.591 232.084ZM300.591 187.511C298.193 187.511 296.487 187.163 295.474 186.468C294.462 185.72 293.849 184.785 293.635 183.662C293.476 182.54 293.396 181.391 293.396 180.215C293.396 178.986 293.502 177.837 293.715 176.768C293.929 175.646 294.542 174.737 295.554 174.042C296.567 173.347 298.273 173 300.671 173C303.07 173 304.749 173.374 305.709 174.122C306.721 174.817 307.334 175.726 307.548 176.848C307.761 177.97 307.867 179.12 307.867 180.295C307.867 181.471 307.761 182.62 307.548 183.743C307.334 184.865 306.721 185.774 305.709 186.468C304.749 187.163 303.043 187.511 300.591 187.511Z" fill="#FF92A4"/>
<path d="M326.655 232.004C324.256 232.004 322.55 231.657 321.538 230.962C320.525 230.214 319.912 229.278 319.699 228.156C319.539 227.034 319.459 225.885 319.459 224.709V198.333C319.459 197.158 319.565 196.035 319.779 194.966C319.992 193.897 320.605 193.042 321.618 192.401C322.63 191.706 324.336 191.359 326.735 191.359C328.92 191.359 330.493 191.653 331.452 192.241C332.465 192.775 333.104 193.443 333.371 194.245C333.637 195.046 333.744 195.795 333.691 196.489C333.691 197.131 333.744 197.532 333.851 197.692L333.211 198.173C333.158 197.371 333.451 196.57 334.09 195.768C334.783 194.966 335.663 194.245 336.729 193.603C337.848 192.909 339.021 192.374 340.247 192C341.526 191.572 342.726 191.359 343.845 191.359C346.51 191.359 348.855 191.866 350.881 192.882C352.906 193.897 354.585 195.34 355.918 197.211C357.304 199.028 358.343 201.166 359.036 203.624C359.729 206.083 360.076 208.755 360.076 211.641V224.789C360.076 225.965 359.969 227.114 359.756 228.236C359.543 229.359 358.93 230.267 357.917 230.962C356.957 231.657 355.252 232.004 352.8 232.004C350.348 232.004 348.616 231.657 347.603 230.962C346.59 230.214 345.977 229.278 345.764 228.156C345.551 227.034 345.444 225.885 345.444 224.709V211.641C345.444 210.412 345.204 209.37 344.724 208.515C344.298 207.66 343.658 207.018 342.806 206.591C342.006 206.11 340.993 205.869 339.767 205.869C338.595 205.869 337.555 206.11 336.649 206.591C335.796 207.072 335.13 207.74 334.65 208.595C334.17 209.45 333.931 210.466 333.931 211.641V224.789C333.931 225.965 333.824 227.114 333.611 228.236C333.398 229.359 332.785 230.267 331.772 230.962C330.812 231.657 329.107 232.004 326.655 232.004Z" fill="#FF92A4"/>
<path d="M389.931 249C388.066 249 386.147 248.733 384.174 248.198C382.256 247.717 380.47 247.049 378.818 246.194C377.165 245.339 375.833 244.404 374.82 243.388C373.807 242.426 373.301 241.464 373.301 240.502C373.301 239.433 373.487 238.444 373.86 237.536C374.287 236.627 374.9 235.745 375.699 234.89C376.552 233.982 377.298 233.26 377.938 232.726C378.578 232.191 379.351 231.924 380.257 231.924C381.056 231.924 381.749 232.111 382.336 232.485C382.975 232.859 383.615 233.26 384.254 233.688C384.894 234.169 385.667 234.596 386.573 234.97C387.533 235.345 388.732 235.532 390.171 235.532C390.971 235.532 391.717 235.345 392.41 234.97C393.103 234.65 393.689 234.169 394.169 233.527C394.702 232.94 395.128 232.218 395.448 231.363C395.768 230.561 395.928 229.679 395.928 228.717V195.688C396.141 194.084 396.807 192.935 397.927 192.241C399.046 191.546 400.752 191.198 403.044 191.198C405.389 191.198 407.041 191.546 408.001 192.241C408.96 192.935 409.52 193.844 409.68 194.966C409.893 196.035 410 197.158 410 198.333V229.198C410 232.352 409.387 235.158 408.161 237.616C406.988 240.075 405.416 242.132 403.444 243.789C401.471 245.499 399.313 246.782 396.967 247.637C394.622 248.546 392.277 249 389.931 249ZM387.932 230.882C385.587 230.882 383.322 230.347 381.136 229.278C379.004 228.21 377.085 226.74 375.379 224.869C373.674 222.999 372.315 220.887 371.302 218.536C370.342 216.131 369.863 213.619 369.863 211C369.863 208.488 370.342 206.056 371.302 203.705C372.315 201.353 373.674 199.269 375.379 197.451C377.138 195.581 379.084 194.111 381.216 193.042C383.402 191.92 385.64 191.359 387.932 191.359C390.278 191.359 392.197 191.84 393.689 192.802C395.235 193.764 396.434 195.127 397.287 196.89C398.193 198.654 398.833 200.765 399.206 203.224C399.579 205.629 399.766 208.301 399.766 211.241C399.766 215.302 399.419 218.803 398.726 221.743C398.087 224.682 396.914 226.954 395.208 228.557C393.503 230.107 391.077 230.882 387.932 230.882ZM389.851 216.772C390.864 216.772 391.77 216.505 392.57 215.97C393.423 215.436 394.089 214.741 394.569 213.886C395.102 213.031 395.368 212.122 395.368 211.16C395.368 210.091 395.102 209.129 394.569 208.274C394.089 207.419 393.423 206.751 392.57 206.27C391.717 205.736 390.757 205.468 389.691 205.468C388.679 205.468 387.746 205.736 386.893 206.27C386.04 206.805 385.347 207.499 384.814 208.354C384.334 209.21 384.095 210.145 384.095 211.16C384.095 212.122 384.361 213.031 384.894 213.886C385.427 214.741 386.12 215.436 386.973 215.97C387.879 216.505 388.839 216.772 389.851 216.772Z" fill="#FF92A4"/>
<path d="M70.1591 436.007C63.5131 436.007 58.7872 435.047 55.9811 433.128C53.175 431.062 51.4766 428.478 50.8859 425.378C50.2951 422.13 49.9998 418.882 49.9998 415.635V301.151C49.9998 293.474 51.4766 288.234 54.4304 285.429C57.5318 282.476 62.9962 281 70.8237 281H151.904C155.301 281 158.476 281.295 161.43 281.886C164.531 282.476 167.042 284.174 168.962 286.979C170.882 289.784 171.842 294.582 171.842 301.372C171.842 308.016 170.808 312.74 168.74 315.544C166.82 318.349 164.31 320.047 161.208 320.638C158.107 321.228 154.858 321.523 151.461 321.523H90.5399V341.231H131.302C134.698 341.231 137.726 341.527 140.384 342.117C143.19 342.56 145.332 344.036 146.809 346.546C148.433 348.908 149.246 353.041 149.246 358.946C149.246 364.556 148.433 368.542 146.809 370.904C145.184 373.266 142.969 374.669 140.163 375.111C137.505 375.554 134.477 375.776 131.08 375.776H90.5399V415.856C90.5399 419.104 90.2446 422.278 89.6538 425.378C89.0631 428.478 87.3647 431.062 84.5586 433.128C81.7525 435.047 76.9527 436.007 70.1591 436.007Z" fill="#FF92A4"/>
<path d="M237.29 438C230.497 438 223.629 436.671 216.688 434.014C209.747 431.209 203.322 427.297 197.415 422.278C191.655 417.111 187.003 410.984 183.458 403.898C180.062 396.665 178.363 388.619 178.363 379.762C178.363 371.642 179.914 364.039 183.015 356.953C186.117 349.867 190.326 343.667 195.643 338.353C201.107 332.89 207.31 328.609 214.251 325.509C221.34 322.409 228.872 320.859 236.847 320.859C247.776 320.859 257.671 323.516 266.532 328.831C275.394 333.998 282.483 341.01 287.799 349.867C293.116 358.725 295.775 368.616 295.775 379.54C295.775 388.841 294.002 397.108 290.458 404.341C286.913 411.575 282.261 417.701 276.501 422.721C270.742 427.74 264.391 431.504 257.45 434.014C250.656 436.671 243.936 438 237.29 438ZM236.847 397.477C239.063 397.477 241.573 396.96 244.379 395.927C247.333 394.746 249.844 392.827 251.911 390.169C254.127 387.512 255.234 383.895 255.234 379.319C255.234 375.628 254.422 372.454 252.798 369.797C251.321 367.14 249.179 365.073 246.373 363.597C243.567 362.12 240.318 361.382 236.626 361.382C233.377 361.382 230.423 362.194 227.765 363.818C225.106 365.294 222.965 367.435 221.34 370.24C219.716 372.897 218.903 375.997 218.903 379.54C218.903 383.969 219.937 387.512 222.005 390.169C224.072 392.827 226.509 394.746 229.315 395.927C232.121 396.96 234.632 397.477 236.847 397.477Z" fill="#FF92A4"/>
<path d="M343.097 436.007C336.451 436.007 331.725 435.047 328.919 433.128C326.113 431.062 324.415 428.478 323.824 425.378C323.381 422.13 323.16 418.882 323.16 415.635V343.446C323.16 340.05 323.455 336.876 324.046 333.924C324.636 330.824 326.335 328.314 329.141 326.395C331.947 324.476 336.673 323.516 343.319 323.516C349.817 323.516 354.395 324.402 357.054 326.173C359.86 327.945 361.558 329.938 362.149 332.152C362.74 334.219 363.035 335.843 363.035 337.024L359.491 335.695C359.491 335.695 360.081 335.031 361.263 333.702C362.444 332.374 364.143 330.824 366.358 329.052C368.721 327.281 371.453 325.731 374.555 324.402C377.804 323.073 381.422 322.409 385.41 322.409C386.739 322.409 388.364 322.557 390.284 322.852C392.351 323 394.493 323.369 396.708 323.959C399.071 324.55 401.212 325.435 403.132 326.616C405.2 327.797 406.824 329.347 408.006 331.267C409.335 333.186 410 335.548 410 338.353C410 345.734 408.375 352.008 405.126 357.175C402.025 362.342 397.889 364.925 392.72 364.925C389.914 364.925 387.921 364.778 386.739 364.482C385.557 364.039 384.671 363.67 384.081 363.375C383.638 362.932 383.047 362.563 382.308 362.268C381.718 361.825 380.536 361.604 378.764 361.604C376.549 361.604 374.481 361.899 372.561 362.489C370.789 362.932 369.164 363.67 367.687 364.704C366.358 365.737 365.324 366.992 364.586 368.468C363.847 369.797 363.478 371.273 363.478 372.897V416.078C363.478 419.325 363.183 422.499 362.592 425.599C362.001 428.7 360.303 431.209 357.497 433.128C354.691 435.047 349.891 436.007 343.097 436.007Z" fill="#FF92A4"/>
<path d="M407.783 619.692L295.185 619.893C281.384 619.989 266.723 620.037 251.518 620.037C214.507 620.037 180.678 619.73 154.804 619.223H50.6494C50.6494 600.789 70.8977 608.886 76.2367 612.14C82.4449 615.921 74.4507 595.792 87.1249 595.792C97.9749 595.792 104.183 601.258 104.183 601.258C104.183 601.258 104.479 590.633 114.766 590.48C125.052 590.327 131.585 599.41 139.704 606.886C143.056 609.968 147.087 612.418 150.897 614.284C177.23 613.729 212.607 613.385 251.518 613.385C269.951 613.385 287.583 613.461 303.848 613.605C332.75 613.605 359.216 598.377 366.723 594.558C385.271 585.101 376.484 607.642 376.484 607.642C376.484 607.642 390.782 601.612 400.839 601.66C415.042 601.717 407.783 619.692 407.783 619.692Z" fill="#A0A3FF"/>
<path d="M349.359 619.137C349.359 619.137 352.206 593.467 333.676 585.206C333.676 585.206 330.945 613.136 340.19 611.308C343.657 610.619 336.217 603.842 324.087 603.555C324.087 603.555 333.38 619.204 344.67 619.424" stroke="#FFD394" stroke-width="2.91353" stroke-miterlimit="10"/>
<path d="M344.707 619.386C344.707 619.386 345.777 607.642 357.2 603.986C367.515 600.693 349.464 619.099 349.464 619.099" stroke="#FFD394" stroke-width="2.91353" stroke-miterlimit="10"/>
<path d="M88.2034 618.314C88.2034 618.314 71.8234 607.067 67.2102 588.719C67.2102 588.719 81.7087 593.064 87.8596 602.31C87.8596 602.31 90.3811 581.263 96.4747 574.18C96.4747 574.18 99.7698 578.927 100.18 596.52C100.18 596.52 107.649 583.771 113.208 579.655C113.208 579.655 112.444 596.242 108.471 604.713C108.471 604.713 114.211 600.233 118.089 604.627C121.966 609.02 114.364 615.452 114.364 615.452" stroke="#4E51BF" stroke-width="2.42794" stroke-miterlimit="10"/>
<path d="M96.4846 574.802C96.4846 574.802 96.647 613.145 94.9087 618.113" stroke="#4E51BF" stroke-width="2.42794" stroke-miterlimit="10"/>
<path d="M112.674 580.622C112.674 580.622 101.251 610.035 94.9087 618.113" stroke="#4E51BF" stroke-width="2.42794" stroke-miterlimit="10"/>
<path d="M108.298 604.847C107.878 606.388 104.984 610.638 104.411 608.81C103.847 606.981 109.053 604.024 110.361 603.536" stroke="#4E51BF" stroke-width="2.42794" stroke-miterlimit="10"/>
<path d="M87.8687 602.32C88.6424 603.813 91.2594 608.005 88.6137 607.9C86.885 607.833 88.3367 599.037 88.3367 599.037" stroke="#4E51BF" stroke-width="2.42794" stroke-miterlimit="10"/>
<path d="M303.808 586.795C297.313 589.983 297.924 596.099 297.867 600.205C297.8 604.579 289.471 606.867 289.471 606.867C291.687 599.87 290.111 592.663 290.111 592.663L303.808 586.795Z" fill="#F88A9D"/>
<path d="M310.695 602.904L309.214 603.708L306.11 596.597C305.948 596.223 305.585 596.003 305.212 596.003C305.088 596.003 304.954 596.032 304.83 596.08C304.515 596.214 304.286 596.511 304.248 596.855L302.882 607.164L284.916 616.965C284.381 615.682 287.715 612.466 289.482 606.867C289.482 606.867 297.82 604.579 297.877 600.205C297.934 596.099 297.333 589.973 303.818 586.796L305.184 586.212C312.633 589.648 310.695 602.904 310.695 602.904Z" fill="#FFD394"/>
<path d="M305.175 535.713V586.212L290.314 592.672L279.177 541.972C284.163 542.164 292.472 541.111 305.175 535.713Z" fill="#C0C1FF" stroke="#121316" stroke-width="2.42794" stroke-miterlimit="10"/>
<path d="M294.249 540.154L297.181 589.667" stroke="#121316" stroke-width="2.42794" stroke-miterlimit="10"/>
<path d="M305.175 535.713V548.931L279.884 545.265L279.177 541.972C284.163 542.164 292.472 541.111 305.175 535.713Z" fill="#121316"/>
<path d="M380.076 501.447L370.468 503.476C370.143 503.543 369.818 503.438 369.589 503.199C369.427 503.017 369.341 502.797 369.341 502.567C369.341 502.318 369.436 502.069 369.637 501.887L374.985 496.862L373.801 495.8C373.801 495.8 361.385 498.241 360.678 506.003L361.623 507.037C366.504 511.842 371.767 509.363 375.444 508.118C378.958 506.931 383.151 512.397 383.982 513.526C383.992 513.526 384.011 513.526 384.021 513.526C389.56 513.344 393.486 515.316 394.45 514.426L380.076 501.447Z" fill="#FFD394"/>
<path d="M361.633 507.037C366.513 511.842 371.776 509.363 375.453 508.118C379.369 506.798 384.039 513.526 384.039 513.526C377.105 513.746 371.193 517.431 371.193 517.431L361.633 507.037Z" fill="#F88A9D"/>
<path d="M302.301 536.143C302.301 536.143 304.717 552.501 323.256 552.195C341.795 551.888 370.992 517.336 370.992 517.336L360.725 506.06L302.301 536.143Z" fill="#C0C1FF" stroke="#121316" stroke-width="2.42794" stroke-miterlimit="10"/>
<path d="M312.989 531.702C313.6 536.009 316.484 540.068 325.281 539.924C338.347 539.714 356.809 522.533 366.57 512.406" stroke="#121316" stroke-width="2.42794" stroke-miterlimit="10"/>
<path d="M383.219 472.694C381.528 472.053 377.507 474.254 374.48 478.083C371.223 482.189 369.905 486.554 371.337 487.693L325.463 463.247C323.209 462.051 320.612 464.099 321.251 466.569L335.139 519.288C288.1 549.878 273.019 540.709 273.019 540.709V367.466C273.019 367.476 273.019 367.476 273.028 367.485C273.429 368.509 277.737 367.791 282.656 365.868C287.183 364.106 290.64 361.943 290.86 360.814L290.87 360.804V415.39C290.87 418.817 292.713 421.966 295.693 423.641L383.219 472.694Z" fill="#4E51BF"/>
<path d="M383.219 472.694C381.528 472.053 377.507 474.254 374.48 478.083C371.223 482.189 369.905 486.554 371.337 487.693L325.463 463.247C323.209 462.051 320.612 464.099 321.251 466.569L335.139 519.499C323.181 527.28 313.286 532.276 305.177 535.722C292.474 541.111 284.165 542.173 279.179 541.982C274.833 541.819 273.019 540.709 273.019 540.709V367.466C273.019 367.476 273.019 367.476 273.028 367.485C273.429 368.509 277.737 367.791 282.656 365.868C287.183 364.106 290.64 361.943 290.86 360.814L290.87 360.804V415.39C290.87 418.817 292.713 421.966 295.693 423.641L383.219 472.694Z" fill="#4E51BF"/>
<path d="M317.421 458.998L371.337 488.305" stroke="#C0C1FF" stroke-width="2.91353" stroke-miterlimit="10" stroke-linecap="round"/>
<path d="M296.973 424.349L290.927 459.562L321.787 438.266L296.973 424.349Z" fill="#FFD394"/>
<path d="M296.973 424.349L290.927 459.562L321.787 438.266" stroke="#C0C1FF" stroke-width="2.91353" stroke-miterlimit="10" stroke-linecap="round"/>
<path d="M296.727 356.383L256.89 364.566C255.419 364.872 253.9 363.561 253.508 361.637C253.117 359.713 253.996 357.914 255.466 357.608L295.304 349.424L296.727 356.383Z" fill="#C0C1FF" stroke="#FFD661" stroke-width="2.42794" stroke-miterlimit="10" stroke-linecap="round"/>
<path d="M296.713 356.388C298.185 356.086 299.061 354.283 298.668 352.362C298.275 350.441 296.762 349.129 295.29 349.431C293.817 349.734 292.942 351.536 293.335 353.457C293.728 355.379 295.24 356.691 296.713 356.388Z" fill="#C0C1FF" stroke="#FFD661" stroke-width="2.42794" stroke-miterlimit="10" stroke-linecap="round"/>
<path d="M273.994 359.867C273.994 359.867 261.11 374.377 262.514 377.574C264.348 379.402 265.838 380.206 265.618 380.885C265.379 381.622 262.294 386.073 262.294 386.073L261.989 382.771L259.037 383.747C259.037 383.747 262.151 379.191 262.351 377.794C261.072 376.817 258.464 374.788 258.55 373.372C258.646 371.869 263.211 366.528 266.525 362.843L261.53 364.499L260.546 359.876L269.534 358.22L273.994 359.867Z" fill="#4E51BF"/>
<path d="M272.247 360.498C273.745 360.498 274.96 359.281 274.96 357.78C274.96 356.279 273.745 355.062 272.247 355.062C270.749 355.062 269.535 356.279 269.535 357.78C269.535 359.281 270.749 360.498 272.247 360.498Z" fill="#C0C1FF" stroke="#4E51BF" stroke-width="2.42794" stroke-miterlimit="10"/>
<path d="M290.86 360.814C290.641 361.944 287.183 364.107 282.656 365.868C277.737 367.782 273.43 368.51 273.029 367.485C273.029 367.476 273.029 367.476 273.019 367.466C272.675 366.433 276.324 364.068 281.214 362.164C286.133 360.249 290.44 359.522 290.841 360.546C290.87 360.623 290.88 360.709 290.86 360.814Z" fill="#121316"/>
<path d="M287.547 352.774L287.022 360.374L286.774 364.011C285.58 364.643 284.176 365.274 282.657 365.868C280.078 366.873 277.671 367.543 275.905 367.82V360.872L283.154 359.378C283.154 359.378 283.555 356.785 284.319 354.612C285.074 352.43 287.547 352.774 287.547 352.774Z" fill="#F88A9D"/>
<path d="M283.353 359.062C283.248 359.493 280.096 360.498 280.096 362.795" stroke="#5F1126" stroke-width="1.94236" stroke-miterlimit="10" stroke-linecap="round"/>
<path d="M287.022 360.374L286.774 364.011C285.58 364.643 284.176 365.274 282.657 365.868C280.078 366.873 277.671 367.543 275.905 367.82V364.681C277.318 363.848 279.161 362.968 281.215 362.164C283.354 361.321 285.379 360.709 287.022 360.374Z" fill="#5F1126"/>
<path d="M282.275 356.574L274.185 358.431C273.755 358.526 273.354 358.182 273.354 357.703V352.784C273.354 352.123 273.755 351.549 274.338 351.357L282.332 348.744C282.838 348.582 283.344 348.984 283.344 349.548V355.157C283.335 355.837 282.896 356.43 282.275 356.574Z" fill="#F88A9D"/>
<path d="M276.22 357.665C275.781 357.761 275.36 357.426 275.36 356.966V352.248C275.36 351.616 275.771 351.061 276.373 350.879" stroke="#5F1126" stroke-width="1.94236" stroke-miterlimit="10" stroke-linecap="round"/>
<path d="M278.55 357.158C278.111 357.254 277.691 356.909 277.691 356.44V351.578C277.691 350.927 278.101 350.353 278.703 350.171" stroke="#5F1126" stroke-width="1.94236" stroke-miterlimit="10" stroke-linecap="round"/>
<path d="M281.157 356.603C280.718 356.698 280.298 356.344 280.298 355.866V350.831C280.298 350.161 280.709 349.568 281.31 349.376" stroke="#5F1126" stroke-width="1.94236" stroke-miterlimit="10" stroke-linecap="round"/>
<path d="M379.665 482.208C376.408 486.324 372.76 488.822 371.327 487.683C369.895 486.544 371.213 482.189 374.47 478.073C377.507 474.245 381.518 472.043 383.209 472.685L383.543 472.876C384.985 474.025 382.922 478.102 379.665 482.208Z" fill="#121316"/>
<path d="M394.403 489.128L392.235 490.277C391.375 490.736 390.305 490.411 389.847 489.55L387.564 485.3L384.107 484.113C384.489 484.257 385.979 485.022 385.511 487.808L377.392 484.773L374.603 483.73L371.958 482.036C372.579 480.773 373.429 479.413 374.489 478.083C375.377 476.963 376.342 475.987 377.306 475.183L380.067 477.116L382.894 477.423L387.488 477.911C388.223 477.987 388.93 478.236 389.551 478.629L393.218 481.242C393.753 481.624 394.107 482.199 394.193 482.85L394.938 488.076C395.004 488.506 394.785 488.927 394.403 489.128Z" fill="#F88A9D"/>
<path d="M389.064 480.619L392.244 482.888C392.703 483.213 393.009 483.721 393.095 484.285L393.744 488.506C393.792 488.88 393.61 489.243 393.276 489.416" stroke="#5F1126" stroke-width="1.94236" stroke-miterlimit="10" stroke-linecap="round"/>
<path d="M387.096 481.376L390.277 483.644C390.735 483.97 391.041 484.477 391.127 485.042L391.776 489.263C391.824 489.636 391.642 490 391.308 490.172" stroke="#5F1126" stroke-width="1.94236" stroke-miterlimit="10" stroke-linecap="round"/>
<path d="M384.106 484.104L381.795 483.319" stroke="#5F1126" stroke-width="1.94236" stroke-miterlimit="10" stroke-linecap="round"/>
<path d="M382.894 477.423C382.12 478.887 380.993 480.552 379.675 482.218C378.92 483.165 378.156 484.027 377.392 484.773L374.603 483.73L371.958 482.036C372.579 480.773 373.429 479.413 374.489 478.083C375.377 476.963 376.342 475.987 377.306 475.183L380.067 477.116L382.894 477.423Z" fill="#5F1126"/>
<path d="M299.494 398.793L319.924 407.877L327.211 429.24L312.407 418.635L305.502 410.183L299.494 398.793Z" fill="#4E51BF"/>
<path d="M305.501 410.184C305.501 410.184 312.187 411.332 314.881 418.798L316.304 417.362C316.304 417.362 313.715 410.097 306.877 408.231L305.501 410.184Z" fill="#121316"/>
<path d="M345.348 419.458C343.056 418.156 340.936 417.439 340.258 417.697C340.305 417.582 340.334 417.448 340.324 417.314C340.286 416.893 339.942 416.577 339.532 416.577C339.513 416.577 339.494 416.577 339.465 416.577C339.026 416.615 338.701 416.998 338.729 417.439C338.729 417.467 338.739 417.496 338.739 417.515L336.313 419.075C335.769 419.429 335.1 419.449 334.527 419.133C333.954 418.817 333.62 418.243 333.62 417.592V414.098C333.62 412.576 332.865 411.169 331.595 410.327C330.325 409.485 328.729 409.351 327.335 409.944L322.712 412.012L320.955 406.853L300.42 397.731C300.296 397.674 300.143 397.731 300.086 397.865C300.029 397.989 300.086 398.143 300.22 398.2L320.544 407.235L327.793 428.494C327.832 428.599 327.927 428.666 328.032 428.666C328.061 428.666 328.09 428.656 328.118 428.656C328.252 428.608 328.319 428.465 328.281 428.331L322.884 412.5L327.545 410.413C328.787 409.877 330.2 410.002 331.318 410.748C332.445 411.495 333.113 412.739 333.113 414.098V417.592C333.113 418.434 333.553 419.181 334.288 419.583C334.632 419.774 335.005 419.87 335.377 419.87C335.797 419.87 336.218 419.745 336.59 419.506L338.997 417.965C339.14 418.099 339.331 418.176 339.532 418.176C339.551 418.176 339.579 418.176 339.599 418.176C339.771 418.166 339.923 418.099 340.038 417.994C340.038 418.673 341.776 420.195 344.164 421.554C344.68 421.851 345.196 422.119 345.683 422.349C345.979 422.1 346.227 421.803 346.428 421.449C346.628 421.104 346.752 420.731 346.81 420.348C346.351 420.061 345.864 419.755 345.348 419.458ZM339.551 417.774C339.331 417.793 339.15 417.63 339.131 417.419C339.111 417.209 339.274 417.017 339.484 416.998C339.694 416.979 339.885 417.142 339.904 417.352C339.923 417.563 339.761 417.754 339.551 417.774Z" fill="#FFD394"/>
<path d="M304.174 422.77L300.64 442.468L312.684 433.165V420.884L304.174 422.77Z" fill="#F88A9D"/>
<path d="M304.174 422.77L303.735 425.239L309.064 435.959L312.684 433.165V420.884L304.174 422.77Z" fill="#5F1126"/>
<path d="M305.702 410.385C305.702 410.385 299.676 408.882 297.794 412.385C295.912 415.888 301.414 416.855 301.643 415.63C301.748 415.094 291.739 415.103 293.42 422.693C295.167 430.599 303.047 427.881 303.047 427.881L303.964 422.77L305.702 410.385Z" fill="#C0C1FF" stroke="#121316" stroke-width="1.94236" stroke-miterlimit="10"/>
<path d="M312.589 421.717C312.589 421.717 303.591 433.471 311.5 438.467C317.842 442.468 319.475 436.83 317.775 436.055C315.931 435.213 311.7 451.101 324.728 451.054C337.784 451.006 333.792 434.667 327.211 429.25C324.069 426.666 313.582 419.439 313.582 419.439L312.589 421.717Z" fill="#C0C1FF" stroke="#121316" stroke-width="1.94236" stroke-miterlimit="10"/>
<path d="M312.321 418.769L312.999 419.2C313.658 419.621 313.849 420.492 313.438 421.152L313.305 421.353C312.884 422.014 312.015 422.215 311.356 421.794L310.63 421.334C309.828 421.908 305.005 425.134 302.025 421.928C299.131 418.817 305.817 409.714 305.817 409.714C311.49 411.495 313.706 416.548 313.706 416.548L312.321 418.769Z" fill="#F88A9D"/>
<path d="M303.953 411.782C303.953 411.782 305.52 412.366 305.367 413.716C305.214 415.065 303.801 417.19 304.135 417.554C304.469 417.917 304.918 417.984 304.918 417.984" stroke="#5F1126" stroke-width="1.94236" stroke-miterlimit="10" stroke-linecap="round"/>
<path d="M303.572 418.798C303.572 418.798 304.737 419.449 306.323 419.2" stroke="#5F1126" stroke-width="1.94236" stroke-miterlimit="10" stroke-linecap="round"/>
<path d="M308.566 416.882C308.701 416.527 308.655 416.179 308.463 416.105C308.27 416.032 308.005 416.261 307.87 416.616C307.734 416.972 307.781 417.32 307.973 417.393C308.165 417.467 308.431 417.238 308.566 416.882Z" fill="#5F1126"/>
<path d="M304.156 414.855C304.269 414.559 304.228 414.268 304.066 414.206C303.903 414.144 303.68 414.334 303.567 414.63C303.454 414.927 303.495 415.217 303.658 415.279C303.82 415.342 304.043 415.152 304.156 414.855Z" fill="#5F1126"/>
<path d="M311.824 420.415C312.091 419.994 312.645 419.87 313.065 420.138" stroke="#5F1126" stroke-width="1.94236" stroke-miterlimit="10" stroke-linecap="round"/>
<path d="M308.3 414.357C308.3 414.357 309.465 414.673 310.067 416.06" stroke="#5F1126" stroke-width="1.94236" stroke-miterlimit="10" stroke-linecap="round"/>
<path d="M310.039 412.031C310.039 412.031 308.769 416.252 312.408 419.133C314.548 420.827 314.672 418.788 314.672 418.788C314.672 418.788 314.395 414.644 310.039 412.031Z" fill="#C0C1FF" stroke="#121316" stroke-width="1.94236" stroke-miterlimit="10"/>
<path d="M225.664 520.197C224.661 516.531 208.1 519.968 189.857 526.62C172.407 532.985 158.224 541.57 158.071 545.026L148.501 475.068C148.358 474.082 147.517 473.355 146.524 473.355C145.97 473.355 145.473 473.575 145.11 473.939C144.748 474.302 144.528 474.8 144.528 475.355V535.1C144.413 533.463 140.201 532.152 135.025 532.152C129.848 532.152 125.645 533.463 125.521 535.1V467.966C125.521 462.3 128.482 457.055 133.315 454.126L139.59 450.326L165.435 434.686L189.475 420.023V394.993C189.475 396.065 193.897 396.927 199.112 396.927C204.318 396.927 208.749 396.075 208.749 394.993V422.128C208.749 428.139 205.817 433.815 201.137 437.567L186.514 448.038C184.022 449.819 183.42 453.283 185.158 455.81C194.852 469.871 224.642 510.903 225.655 519.929C225.664 520.015 225.664 520.111 225.664 520.197Z" fill="#FFD661"/>
<path d="M189.188 417.879V425.249" stroke="#C0C1FF" stroke-width="2.91353" stroke-miterlimit="10" stroke-linecap="round"/>
<path d="M139.609 450.326L171.481 471.689L165.455 434.686L158.549 438.783L160.173 453.953L146.477 446.019L139.609 450.326Z" stroke="#C0C1FF" stroke-width="2.91353" stroke-miterlimit="10" stroke-linecap="round"/>
<path d="M224.642 521.116C223.496 517.948 208.31 521.604 190.058 528.256C171.806 534.909 157.795 543.322 158.95 546.49C160.096 549.658 175.98 546.385 194.232 539.733C212.484 533.08 225.798 524.284 224.642 521.116Z" stroke="#FFD661" stroke-width="2.42794" stroke-miterlimit="10" stroke-linecap="round"/>
<path d="M183.076 587.207L182.026 589.044L180.86 591.093C170.784 592.356 169.008 585.752 169.008 585.752L170.526 582.727C174.595 585.235 179.753 586.565 183.076 587.207Z" fill="#F88A9D"/>
<path d="M219.37 539.149C212.207 551.524 186.448 587.743 186.448 587.743C186.448 587.743 185.101 587.599 183.076 587.207C179.752 586.556 174.595 585.235 170.516 582.727C169.571 582.143 168.692 581.502 167.899 580.784L186.572 542.786L191.29 532.822L193.907 527.29C194.222 527.175 194.537 527.069 194.843 526.964C194.996 526.907 195.149 526.859 195.311 526.801C195.779 526.639 196.237 526.486 196.696 526.332C197.078 526.208 197.45 526.084 197.823 525.95C198.959 525.567 200.077 525.213 201.166 524.868C208.482 522.552 214.738 520.992 218.959 520.513C219.895 521.824 220.965 523.71 221.576 526.074C222.465 529.529 222.36 533.99 219.37 539.149Z" fill="#C0C1FF" stroke="#121316" stroke-width="2.42794" stroke-miterlimit="10"/>
<path d="M188.1 615.452C187.775 616.878 186.008 617.386 184.977 616.352L161.892 593.294L169.112 585.742C169.112 585.742 170.784 592.337 180.87 591.083C189.017 603.411 188.998 611.48 188.1 615.452Z" fill="#C0C1FF" stroke="#4E51BF" stroke-width="2.42794" stroke-miterlimit="10"/>
<path d="M187.154 616.907C185.588 617.51 183.821 617.194 182.551 616.074L170.497 605.46C170.201 605.192 170.163 604.742 170.411 604.426C170.65 604.129 170.631 603.689 170.354 603.421L169.37 602.464C169.103 602.196 168.673 602.186 168.387 602.435L168.157 602.626C167.88 602.866 167.479 602.866 167.212 602.626L160.736 596.989C159.896 596.261 159.867 594.96 160.66 594.184L161.787 593.093L185.015 616.591C185.684 617.261 186.648 617.29 187.336 616.84L187.154 616.907Z" fill="#4E51BF"/>
<path d="M184.012 594.165C184.012 594.165 185.97 595.907 181.29 598.023" stroke="#4E51BF" stroke-width="2.42794" stroke-miterlimit="10" stroke-linecap="round"/>
<path d="M185.244 596.261C185.244 596.261 187.202 598.003 182.522 600.119" stroke="#4E51BF" stroke-width="2.42794" stroke-miterlimit="10" stroke-linecap="round"/>
<path d="M186.476 598.358C186.476 598.358 188.434 600.1 183.754 602.215" stroke="#4E51BF" stroke-width="2.42794" stroke-miterlimit="10" stroke-linecap="round"/>
<path d="M221.576 526.074C215.368 526.064 209.007 527.146 202.875 528.85C202.388 527.127 201.7 525.758 201.166 524.868C208.482 522.552 214.738 520.992 218.959 520.513C219.905 521.834 220.974 523.719 221.576 526.074Z" fill="#121316"/>
<path d="M156.839 586.24L154.996 588.604L153.544 590.461C143.391 590.26 142.579 583.474 142.579 583.474L144.786 580.306C148.616 583.388 153.792 585.302 156.839 586.24Z" fill="#F88A9D"/>
<path d="M203.085 536.593C202.531 538.957 201.347 541.503 199.169 544.126C190.229 554.913 159.36 586.939 159.36 586.939C159.36 586.939 147.307 584.22 142.159 577.712L162.942 548.127L170.612 537.206C175.903 534.382 182.627 531.386 190.058 528.668C193.935 527.251 197.67 525.978 201.165 524.868C201.691 525.758 202.388 527.136 202.875 528.85C203.486 530.975 203.782 533.635 203.085 536.593Z" fill="#C0C1FF" stroke="#121316" stroke-width="2.42794" stroke-miterlimit="10"/>
<path d="M157.211 615.615C156.686 616.983 154.871 617.232 153.993 616.055L134.442 589.915L142.665 583.474C142.665 583.474 143.372 590.26 153.534 590.461C159.847 603.832 158.673 611.815 157.211 615.615Z" fill="#C0C1FF" stroke="#4E51BF" stroke-width="2.42794" stroke-miterlimit="10"/>
<path d="M156.075 616.84C154.442 617.213 152.732 616.639 151.643 615.366L141.233 603.153C140.975 602.846 141.004 602.396 141.29 602.119C141.577 601.86 141.605 601.42 141.376 601.114L140.536 600.032C140.306 599.736 139.886 599.659 139.561 599.86L139.313 600.023C139.007 600.214 138.616 600.157 138.377 599.889L132.742 593.409C132.016 592.567 132.169 591.284 133.067 590.633L134.337 589.714L153.983 616.218C154.547 616.974 155.502 617.136 156.247 616.801L156.075 616.84Z" fill="#4E51BF"/>
<path d="M156.419 594.022C156.419 594.022 158.11 596.022 153.172 597.448" stroke="#4E51BF" stroke-width="2.42794" stroke-miterlimit="10" stroke-linecap="round"/>
<path d="M157.537 596.271C157.537 596.271 159.228 598.271 154.29 599.697" stroke="#4E51BF" stroke-width="2.42794" stroke-miterlimit="10" stroke-linecap="round"/>
<path d="M158.454 598.52C158.454 598.52 160.145 600.52 155.207 601.947" stroke="#4E51BF" stroke-width="2.42794" stroke-miterlimit="10" stroke-linecap="round"/>
<path d="M202.885 528.85C198.893 529.96 194.996 531.329 191.299 532.812C175.34 539.254 163.105 548.002 162.952 548.107L170.621 537.186C175.913 534.363 182.637 531.367 190.067 528.649C191.366 528.18 192.646 527.72 193.916 527.27C194.232 527.156 194.547 527.05 194.852 526.945C195.005 526.888 195.158 526.84 195.32 526.782C195.788 526.62 196.247 526.466 196.705 526.313C197.087 526.189 197.46 526.064 197.832 525.93C198.969 525.548 200.086 525.193 201.175 524.849C201.701 525.768 202.388 527.136 202.885 528.85Z" fill="#121316"/>
<path d="M144.318 536.392C144.318 538.058 140.164 539.417 135.035 539.417C129.906 539.417 125.751 538.067 125.751 536.392C125.751 536.373 125.751 536.344 125.751 536.325C125.866 534.688 129.982 533.377 135.035 533.377C140.087 533.377 144.204 534.688 144.318 536.325C144.318 536.344 144.318 536.373 144.318 536.392Z" fill="#C0C1FF" stroke="#FFD661" stroke-width="2.42794" stroke-miterlimit="10" stroke-linecap="round"/>
<path d="M140.574 534.143V542.001C140.574 544.547 139.17 546.873 136.935 548.069L133.124 550.099C132.198 550.596 131.157 550.855 130.106 550.855C129.657 550.855 129.352 550.481 129.352 550.089C129.352 549.926 129.409 549.754 129.524 549.61L130.947 547.888C131.147 547.648 130.975 547.294 130.67 547.294H122.293L120.765 549.228C119.953 550.252 118.712 550.855 117.413 550.855H116.973C116.429 550.855 116.095 550.271 116.362 549.802L116.534 549.486C116.009 549.706 115.436 549.831 114.853 549.831H114.414C113.869 549.831 113.535 549.247 113.802 548.778L117.231 544.987L119.61 544.049V544.059L131.424 539.407V533.818C132.542 533.674 133.755 533.588 135.035 533.588C137.107 533.578 139.017 533.789 140.574 534.143Z" fill="#F88A9D"/>
<path d="M119.304 544.451L116.438 549.381" stroke="#121316" stroke-width="1.94236" stroke-miterlimit="10" stroke-linecap="round"/>
<path d="M130.221 548.749L131.979 546.595C132.322 546.174 132.026 545.552 131.482 545.552" stroke="#121316" stroke-width="1.94236" stroke-miterlimit="10" stroke-linecap="round"/>
<path d="M140.574 534.143V539.053C139.018 539.407 137.107 539.618 135.035 539.618C133.755 539.618 132.542 539.541 131.425 539.388V533.798C132.542 533.655 133.755 533.569 135.035 533.569C137.098 533.578 139.018 533.789 140.574 534.143Z" fill="#121316"/>
<path d="M208.549 393.969C208.549 395.051 204.327 395.903 199.122 395.903C193.916 395.903 189.695 395.051 189.695 393.969C189.695 392.888 193.916 391.998 199.122 391.998C204.327 391.998 208.549 392.897 208.549 393.969Z" stroke="#FFD661" stroke-width="2.42794" stroke-miterlimit="10" stroke-linecap="round"/>
<path d="M196.247 395.549C195.082 395.472 194.022 395.357 193.105 395.194V385.901C193.105 385.594 193.172 385.288 193.305 385.01L196.304 378.808C196.858 377.66 198.024 376.932 199.294 376.932H202.971L194.929 391.758C194.891 391.825 194.862 391.892 194.833 391.959C194.365 393.117 194.948 394.601 196.247 395.549Z" fill="#F88A9D"/>
<path d="M203.161 391.787L204.345 389.72V395.328C203.371 395.453 202.273 395.558 201.098 395.606L203.161 391.787Z" fill="#121316"/>
<path d="M220.487 359.33L200.907 395.434C200.182 396.774 198.195 397.09 196.457 396.142C194.718 395.194 193.906 393.347 194.632 392.017L214.212 355.913L220.487 359.33Z" fill="#C0C1FF" stroke="#4E51BF" stroke-width="2.42794" stroke-miterlimit="10"/>
<path d="M220.48 359.344C221.205 358.006 220.388 356.156 218.655 355.212C216.921 354.268 214.928 354.587 214.203 355.925C213.477 357.262 214.295 359.112 216.028 360.056C217.761 361 219.754 360.681 220.48 359.344Z" fill="#C0C1FF" stroke="#4E51BF" stroke-width="2.42794" stroke-miterlimit="10"/>
<path d="M208.491 372.577L217.746 364.901L217.602 367.696L220.563 368.433L213.495 372.807C218.92 371.639 228.663 369.993 230.143 372.864C230.726 373.994 229.627 376.3 228.892 377.956C228.433 381.45 246.714 377.123 246.924 377.076L244.107 379.689L246.924 381.297C246.924 381.297 231.585 384.225 227.631 383.421C225.396 382.962 227.173 379.957 228.729 377.755C229.207 376.061 225.406 375.506 209.599 377.229L208.491 372.577Z" fill="#4E51BF"/>
<path d="M208.625 377.191C210.134 377.191 211.357 375.965 211.357 374.453C211.357 372.941 210.134 371.716 208.625 371.716C207.116 371.716 205.893 372.941 205.893 374.453C205.893 375.965 207.116 377.191 208.625 377.191Z" fill="#C0C1FF" stroke="#4E51BF" stroke-width="2.42794" stroke-miterlimit="10"/>
<path d="M210.765 383.623L209.886 385.69L208.855 388.102L208.301 389.413L207.451 391.414C207.432 391.471 207.403 391.519 207.375 391.576C207.375 391.576 207.375 391.586 207.365 391.586C207.088 392.055 206.563 392.352 205.99 392.352H199.247C198.435 392.352 197.871 391.576 198.177 390.859L198.664 389.71L199.743 387.174L200.67 384.991L201.482 383.067C201.72 382.503 202.303 382.139 202.943 382.139H209.686C210.517 382.129 211.071 382.905 210.765 383.623Z" fill="#F88A9D"/>
<path d="M200.908 384.982C201.185 384.666 201.595 384.484 202.035 384.484H208.472C209.15 384.484 209.637 385.068 209.571 385.69" stroke="#121316" stroke-width="1.94236" stroke-miterlimit="10" stroke-linecap="round"/>
<path d="M200.029 387.173C200.306 386.896 200.688 386.733 201.098 386.733H207.536C208.271 386.733 208.787 387.422 208.596 388.102" stroke="#121316" stroke-width="1.94236" stroke-miterlimit="10" stroke-linecap="round"/>
<path d="M199.017 389.7C199.294 389.442 199.666 389.289 200.058 389.289H206.495C207.259 389.289 207.784 390.026 207.536 390.724" stroke="#121316" stroke-width="1.94236" stroke-miterlimit="10" stroke-linecap="round"/>
<path d="M206.667 376.922V377.095C206.667 378.846 205.254 380.272 203.496 380.272H200.172V376.922H206.667Z" fill="#F88A9D"/>
<path d="M125.95 451.8C125.644 452.259 125.329 452.69 125.014 453.082C124.67 452.996 124.336 452.853 124.03 452.642C123.725 452.431 123.467 452.183 123.257 451.886C123.505 451.455 123.782 450.996 124.097 450.536C125.644 448.239 127.306 446.66 127.822 447.004C128.338 447.349 127.497 449.503 125.95 451.8Z" fill="#FFD394"/>
<path d="M140.028 417.314L128.099 434.964C127.956 435.174 128.156 435.433 128.395 435.366L134.097 433.528C133.4 434.361 132.97 435.442 132.97 436.61V442.171C132.97 444.344 131.241 446.114 129.083 446.172C128.949 445.923 128.682 445.751 128.366 445.751C128.147 445.751 127.946 445.837 127.793 445.99C127.641 446.143 127.555 446.344 127.564 446.564C127.564 447.005 127.927 447.368 128.376 447.368C128.777 447.368 129.111 447.062 129.169 446.679C131.557 446.574 133.476 444.593 133.476 442.171V436.61C133.476 435.213 134.164 433.94 135.195 433.174L146.666 429.479L161.394 417.314H140.028ZM128.586 446.756C128.529 446.813 128.452 446.842 128.376 446.842C128.3 446.842 128.223 446.813 128.166 446.756C128.109 446.698 128.08 446.622 128.08 446.545C128.08 446.469 128.109 446.392 128.166 446.335C128.223 446.277 128.3 446.248 128.376 446.248C128.462 446.248 128.529 446.277 128.586 446.335C128.643 446.392 128.672 446.459 128.672 446.545C128.682 446.631 128.643 446.698 128.586 446.756Z" fill="#FFD661"/>
<path d="M127.058 434.925C127.01 434.925 126.963 434.916 126.915 434.877C126.8 434.801 126.772 434.638 126.848 434.523L139.284 416.127H161.805C161.948 416.127 162.063 416.242 162.063 416.385C162.063 416.529 161.948 416.644 161.805 416.644H139.551L127.268 434.81C127.221 434.887 127.144 434.925 127.058 434.925Z" fill="#FFD661"/>
<path d="M139.627 431.958L138.194 431.307L138.271 431.087C138.299 431.001 138.997 428.972 140.716 426.818C142.311 424.818 145.109 422.358 149.417 421.937L149.665 421.918L149.913 423.727L149.407 423.794L149.226 422.473C145.233 422.932 142.616 425.249 141.117 427.134C139.77 428.819 139.063 430.465 138.844 431.039L139.847 431.499L139.627 431.958Z" fill="#C0C1FF"/>
<path d="M146.887 445.913L143.993 436.438L150.764 433.116L153.553 435.241L158.348 438.888L159.8 453.379L146.887 445.913Z" fill="#F88A9D"/>
<path d="M153.553 435.241L148.386 446.784L146.887 445.913L143.993 436.438L150.764 433.116L153.553 435.241Z" fill="#121316"/>
<path d="M147.813 437.06C147.326 437.108 146.342 436.61 145.225 435.902L143.916 436.964C143.162 437.577 142.054 437.471 141.443 436.715C141.175 436.39 141.041 435.988 141.041 435.595C141.041 435.088 141.261 434.581 141.691 434.227L142.226 433.786C140.822 432.734 139.723 431.824 139.723 431.824C139.723 431.824 142.159 424.493 149.943 423.746C149.943 423.746 154.069 432.293 154.346 433.107C154.623 433.93 150.564 436.782 147.813 437.06Z" fill="#F88A9D"/>
<path d="M142.226 433.787C140.822 432.734 139.724 431.824 139.724 431.824C139.724 431.824 140.621 429.116 143.086 426.819C140.507 429.393 144.356 432.265 142.226 433.787Z" fill="#FFD394"/>
<path d="M143.582 428.848C143.582 428.848 143.993 427.737 145.034 427.163" stroke="#121316" stroke-width="1.94236" stroke-miterlimit="10" stroke-linecap="round"/>
<path d="M151.032 426.034C151.032 426.034 149.589 425.833 148.873 426.273C148.157 426.713 148.157 428.991 149.303 430.417" stroke="#121316" stroke-width="1.94236" stroke-miterlimit="10" stroke-linecap="round"/>
<path d="M149.991 431.843C149.991 431.843 149.102 432.638 147.593 432.054" stroke="#121316" stroke-width="1.94236" stroke-miterlimit="10" stroke-linecap="round"/>
<path d="M147.737 431.633C147.737 431.633 147.422 432.083 147.441 432.59" stroke="#121316" stroke-width="1.94236" stroke-miterlimit="10" stroke-linecap="round"/>
<path d="M145.869 430.28C146.022 430.239 146.081 429.961 146 429.66C145.919 429.359 145.73 429.148 145.577 429.189C145.424 429.23 145.366 429.508 145.446 429.809C145.527 430.11 145.716 430.321 145.869 430.28Z" fill="#121316"/>
<path d="M150.138 428.407C150.276 428.37 150.327 428.112 150.251 427.831C150.176 427.551 150.004 427.353 149.866 427.39C149.728 427.427 149.678 427.685 149.753 427.965C149.828 428.246 150.001 428.444 150.138 428.407Z" fill="#121316"/>
<path d="M145.722 436.476L143.515 434.753C143.267 434.562 142.923 434.581 142.694 434.792L142.56 434.916C142.302 435.165 142.302 435.567 142.56 435.816" stroke="#121316" stroke-width="1.94236" stroke-miterlimit="10" stroke-linecap="round"/>
<path d="M57.6028 522.513C55.3522 522.513 53.7518 522.188 52.8016 521.538C51.8514 520.837 51.2762 519.962 51.0762 518.912C50.8761 517.812 50.7761 516.711 50.7761 515.611V476.827C50.7761 474.226 51.2762 472.451 52.2765 471.5C53.3267 470.5 55.1772 470 57.8278 470H85.2845C86.4348 470 87.51 470.1 88.5103 470.3C89.5605 470.5 90.4107 471.075 91.0609 472.025C91.7611 472.976 92.1111 474.601 92.1111 476.902C92.1111 479.152 91.7611 480.753 91.0609 481.703C90.4107 482.653 89.5605 483.228 88.5103 483.428C87.46 483.628 86.3598 483.728 85.2095 483.728H64.5045V490.405H78.3828C79.5331 490.405 80.5583 490.505 81.4586 490.705C82.3588 490.855 83.084 491.33 83.6341 492.13C84.1842 492.931 84.4593 494.331 84.4593 496.331C84.4593 498.232 84.1842 499.607 83.6341 500.457C83.084 501.258 82.3338 501.733 81.3835 501.883C80.4333 502.033 79.3831 502.108 78.2328 502.108H64.5045V508.784H85.2845C86.4348 508.784 87.51 508.884 88.5103 509.084C89.5605 509.285 90.4107 509.86 91.0609 510.81C91.7611 511.76 92.1111 513.386 92.1111 515.686C92.1111 517.937 91.7611 519.537 91.0609 520.487C90.4107 521.437 89.5605 522.013 88.5103 522.213C87.46 522.413 86.3598 522.513 85.2095 522.513H57.6028Z" fill="#FF92A4"/>
<path d="M116.265 522.888C114.864 522.888 113.639 522.613 112.589 522.063C111.589 521.512 110.813 520.687 110.263 519.587L96.985 494.306C95.8847 492.155 95.5346 490.355 95.9347 488.905C96.3348 487.454 97.6852 486.179 99.9857 485.079C102.336 483.928 104.187 483.528 105.537 483.878C106.887 484.228 108.113 485.654 109.213 488.154L116.265 504.208L123.316 488.154C124.467 485.554 125.717 484.103 127.067 483.803C128.418 483.503 130.243 483.928 132.544 485.079C134.894 486.229 136.245 487.554 136.595 489.055C136.945 490.505 136.595 492.255 135.544 494.306L122.266 519.587C121.716 520.687 120.941 521.512 119.941 522.063C118.94 522.613 117.715 522.888 116.265 522.888Z" fill="#FF92A4"/>
<path d="M163.292 523.338C159.541 523.338 156.365 522.738 153.764 521.538C151.164 520.287 149.063 518.687 147.463 516.736C145.862 514.736 144.687 512.585 143.937 510.285C143.187 507.984 142.812 505.759 142.812 503.608C142.812 499.657 143.687 496.181 145.437 493.181C147.188 490.18 149.613 487.829 152.714 486.129C155.815 484.428 159.366 483.578 163.367 483.578C166.467 483.578 169.118 484.078 171.319 485.079C173.519 486.079 175.295 487.354 176.645 488.905C178.045 490.455 179.071 492.105 179.721 493.856C180.371 495.606 180.696 497.232 180.696 498.732C180.696 501.583 179.996 503.758 178.595 505.259C177.195 506.759 175.395 507.509 173.194 507.509H157.215C157.415 508.309 157.815 509.009 158.416 509.61C159.066 510.16 159.866 510.61 160.816 510.96C161.766 511.26 162.792 511.41 163.892 511.41C164.992 511.41 165.967 511.36 166.818 511.26C167.668 511.11 168.393 510.935 168.993 510.735C169.643 510.535 170.218 510.335 170.718 510.135C171.269 509.935 171.744 509.785 172.144 509.685C172.594 509.535 173.019 509.46 173.419 509.46C174.319 509.46 175.145 509.76 175.895 510.36C176.645 510.96 177.32 511.86 177.92 513.06C178.27 513.711 178.52 514.336 178.67 514.936C178.82 515.486 178.895 516.011 178.895 516.511C178.895 518.012 178.27 519.262 177.02 520.262C175.82 521.262 174.069 522.013 171.769 522.513C169.468 523.063 166.643 523.338 163.292 523.338ZM157.215 500.457H165.617C166.317 500.457 166.818 500.307 167.118 500.007C167.468 499.707 167.643 499.257 167.643 498.657C167.643 498.007 167.443 497.457 167.043 497.007C166.693 496.556 166.192 496.231 165.542 496.031C164.892 495.781 164.117 495.656 163.217 495.656C162.016 495.656 160.966 495.906 160.066 496.406C159.166 496.857 158.466 497.457 157.965 498.207C157.515 498.907 157.265 499.657 157.215 500.457Z" fill="#FF92A4"/>
<path d="M196.837 522.513C194.586 522.513 192.986 522.188 192.035 521.538C191.085 520.837 190.51 519.962 190.31 518.912C190.16 517.812 190.085 516.711 190.085 515.611V491.155C190.085 490.005 190.185 488.93 190.385 487.929C190.585 486.879 191.16 486.029 192.11 485.379C193.061 484.729 194.661 484.403 196.912 484.403C199.112 484.403 200.662 484.704 201.563 485.304C202.513 485.904 203.088 486.579 203.288 487.329C203.488 488.029 203.588 488.58 203.588 488.98L202.388 488.529C202.388 488.529 202.588 488.304 202.988 487.854C203.388 487.404 203.963 486.879 204.713 486.279C205.514 485.679 206.439 485.154 207.489 484.704C208.589 484.253 209.815 484.028 211.165 484.028C211.615 484.028 212.165 484.078 212.815 484.178C213.516 484.228 214.241 484.353 214.991 484.554C215.791 484.754 216.516 485.054 217.166 485.454C217.867 485.854 218.417 486.379 218.817 487.029C219.267 487.679 219.492 488.479 219.492 489.43C219.492 491.93 218.942 494.056 217.842 495.806C216.791 497.557 215.391 498.432 213.641 498.432C212.69 498.432 212.015 498.382 211.615 498.282C211.215 498.132 210.915 498.007 210.715 497.907C210.565 497.757 210.365 497.632 210.115 497.532C209.915 497.382 209.515 497.307 208.914 497.307C208.164 497.307 207.464 497.407 206.814 497.607C206.214 497.757 205.664 498.007 205.164 498.357C204.713 498.707 204.363 499.132 204.113 499.632C203.863 500.082 203.738 500.582 203.738 501.133V515.761C203.738 516.861 203.638 517.937 203.438 518.987C203.238 520.037 202.663 520.887 201.713 521.538C200.762 522.188 199.137 522.513 196.837 522.513Z" fill="#FF92A4"/>
<path d="M240.395 537.891C237.945 536.791 236.519 535.566 236.119 534.216C235.719 532.915 236.044 531.19 237.094 529.039L255.324 488.229C256.374 485.879 257.499 484.479 258.7 484.028C259.9 483.578 261.75 483.853 264.251 484.854C266.652 485.954 268.052 487.129 268.452 488.379C268.902 489.63 268.652 491.305 267.702 493.406L249.322 534.591C248.322 536.941 247.197 538.342 245.947 538.792C244.746 539.292 242.896 538.992 240.395 537.891ZM246.472 521.387L228.617 494.381C227.317 492.38 226.792 490.73 227.042 489.43C227.292 488.079 228.492 486.729 230.643 485.379C232.993 483.928 234.794 483.378 236.044 483.728C237.344 484.028 238.67 485.204 240.02 487.254L252.173 505.634L246.472 521.387Z" fill="#FF92A4"/>
<path d="M296.447 523.188C294.146 523.188 291.821 522.738 289.47 521.838C287.119 520.887 284.944 519.562 282.943 517.862C280.993 516.111 279.418 514.036 278.217 511.635C277.067 509.185 276.492 506.459 276.492 503.458C276.492 500.707 277.017 498.132 278.067 495.731C279.117 493.331 280.543 491.23 282.343 489.43C284.194 487.579 286.294 486.129 288.645 485.079C291.045 484.028 293.596 483.503 296.297 483.503C299.998 483.503 303.348 484.403 306.349 486.204C309.35 487.954 311.75 490.33 313.551 493.331C315.351 496.331 316.251 499.682 316.251 503.383C316.251 506.534 315.651 509.335 314.451 511.785C313.251 514.236 311.675 516.311 309.725 518.012C307.774 519.712 305.624 520.987 303.273 521.838C300.973 522.738 298.697 523.188 296.447 523.188ZM296.297 509.46C297.047 509.46 297.897 509.285 298.847 508.934C299.847 508.534 300.698 507.884 301.398 506.984C302.148 506.084 302.523 504.858 302.523 503.308C302.523 502.058 302.248 500.983 301.698 500.082C301.198 499.182 300.473 498.482 299.522 497.982C298.572 497.482 297.472 497.232 296.222 497.232C295.121 497.232 294.121 497.507 293.221 498.057C292.321 498.557 291.595 499.282 291.045 500.232C290.495 501.133 290.22 502.183 290.22 503.383C290.22 504.883 290.57 506.084 291.27 506.984C291.971 507.884 292.796 508.534 293.746 508.934C294.696 509.285 295.546 509.46 296.297 509.46Z" fill="#FF92A4"/>
<path d="M332.277 522.438C330.026 522.438 328.426 522.113 327.475 521.462C326.525 520.762 325.95 519.887 325.75 518.837C325.6 517.787 325.525 516.711 325.525 515.611V490.93C325.525 489.83 325.625 488.78 325.825 487.779C326.025 486.779 326.6 485.979 327.55 485.379C328.501 484.729 330.101 484.403 332.352 484.403C334.402 484.403 335.877 484.679 336.778 485.229C337.728 485.729 338.328 486.354 338.578 487.104C338.828 487.854 338.928 488.554 338.878 489.205C338.878 489.805 338.928 490.18 339.028 490.33L338.428 490.78C338.378 490.03 338.653 489.28 339.253 488.529C339.903 487.779 340.729 487.104 341.729 486.504C342.779 485.854 343.879 485.354 345.03 485.004C346.23 484.604 347.355 484.403 348.406 484.403C350.906 484.403 353.107 484.879 355.007 485.829C356.908 486.779 358.483 488.129 359.733 489.88C361.034 491.58 362.009 493.581 362.659 495.881C363.309 498.182 363.634 500.682 363.634 503.383V515.686C363.634 516.786 363.534 517.862 363.334 518.912C363.134 519.962 362.559 520.812 361.609 521.462C360.709 522.113 359.108 522.438 356.808 522.438C354.507 522.438 352.882 522.113 351.931 521.462C350.981 520.762 350.406 519.887 350.206 518.837C350.006 517.787 349.906 516.711 349.906 515.611V503.383C349.906 502.233 349.681 501.258 349.231 500.457C348.831 499.657 348.23 499.057 347.43 498.657C346.68 498.207 345.73 497.982 344.58 497.982C343.479 497.982 342.504 498.207 341.654 498.657C340.854 499.107 340.229 499.732 339.778 500.532C339.328 501.333 339.103 502.283 339.103 503.383V515.686C339.103 516.786 339.003 517.862 338.803 518.912C338.603 519.962 338.028 520.812 337.078 521.462C336.178 522.113 334.577 522.438 332.277 522.438Z" fill="#FF92A4"/>
<path d="M393.372 523.338C389.621 523.338 386.445 522.738 383.845 521.538C381.244 520.287 379.143 518.687 377.543 516.736C375.943 514.736 374.767 512.585 374.017 510.285C373.267 507.984 372.892 505.759 372.892 503.608C372.892 499.657 373.767 496.181 375.518 493.181C377.268 490.18 379.694 487.829 382.794 486.129C385.895 484.428 389.446 483.578 393.447 483.578C396.548 483.578 399.198 484.078 401.399 485.079C403.599 486.079 405.375 487.354 406.725 488.905C408.125 490.455 409.151 492.105 409.801 493.856C410.451 495.606 410.776 497.232 410.776 498.732C410.776 501.583 410.076 503.758 408.676 505.259C407.275 506.759 405.475 507.509 403.274 507.509H387.295C387.495 508.309 387.896 509.009 388.496 509.61C389.146 510.16 389.946 510.61 390.896 510.96C391.847 511.26 392.872 511.41 393.972 511.41C395.072 511.41 396.048 511.36 396.898 511.26C397.748 511.11 398.473 510.935 399.073 510.735C399.723 510.535 400.299 510.335 400.799 510.135C401.349 509.935 401.824 509.785 402.224 509.685C402.674 509.535 403.099 509.46 403.499 509.46C404.4 509.46 405.225 509.76 405.975 510.36C406.725 510.96 407.4 511.86 408 513.06C408.351 513.711 408.601 514.336 408.751 514.936C408.901 515.486 408.976 516.011 408.976 516.511C408.976 518.012 408.351 519.262 407.1 520.262C405.9 521.262 404.15 522.013 401.849 522.513C399.548 523.063 396.723 523.338 393.372 523.338ZM387.295 500.457H395.697C396.398 500.457 396.898 500.307 397.198 500.007C397.548 499.707 397.723 499.257 397.723 498.657C397.723 498.007 397.523 497.457 397.123 497.007C396.773 496.556 396.273 496.231 395.622 496.031C394.972 495.781 394.197 495.656 393.297 495.656C392.097 495.656 391.046 495.906 390.146 496.406C389.246 496.857 388.546 497.457 388.046 498.207C387.596 498.907 387.345 499.657 387.295 500.457Z" fill="#FF92A4"/>
<g clip-path="url(#clip0_74_830)">
<path d="M179.531 693.708V715.191C179.531 715.784 179.335 715.961 178.747 715.961H167.612C160.605 715.961 156 710.844 156 702.757V693.708C156 686.707 161.008 681.011 167.165 681.011H168.365C174.52 681.011 179.531 686.707 179.531 693.708ZM178.127 714.123V699.927C178.126 699.886 178.11 699.847 178.082 699.817C178.054 699.788 178.015 699.771 177.975 699.77C175.865 699.712 172.668 702.669 172.668 706.004C172.668 708.664 175.008 712.896 177.642 714.191L177.962 714.302C178.061 714.328 178.127 714.226 178.127 714.123ZM178.127 697.919V696.932C178.127 696.899 178.116 696.866 178.097 696.84C178.077 696.813 178.049 696.793 178.018 696.783C177.986 696.773 177.953 696.774 177.921 696.784C177.89 696.795 177.863 696.816 177.844 696.843C176.865 698.271 175.016 699.107 174.015 699.396C173.752 699.471 173.48 699.509 173.207 699.507H162.42C162.319 699.507 162.218 699.494 162.12 699.47C160.525 699.31 158.375 697.389 157.636 696.679C157.614 696.657 157.586 696.642 157.555 696.636C157.525 696.63 157.493 696.634 157.464 696.647C157.435 696.659 157.411 696.68 157.395 696.707C157.378 696.734 157.37 696.765 157.372 696.797L157.401 702.76C157.404 709.66 161.291 714.302 167.612 714.302H171.785C175.508 714.302 175.158 714.449 174.235 713.315C172.911 711.684 171.099 708.181 171.099 706.024C171.099 701.805 174.498 699.154 178.017 698.068C178.049 698.058 178.076 698.039 178.096 698.012C178.116 697.985 178.127 697.953 178.127 697.919ZM173.521 697.911C176.007 697.522 177.922 695.04 177.916 692.105C177.91 689.17 175.737 686.86 173.148 686.708C170.663 686.561 168.534 688.09 167.914 690.594C167.906 690.628 167.887 690.659 167.86 690.681C167.832 690.703 167.798 690.715 167.763 690.715C167.728 690.715 167.694 690.703 167.667 690.681C167.64 690.659 167.62 690.628 167.613 690.594C166.989 688.083 164.841 686.546 162.342 686.711C159.731 686.88 157.568 689.245 157.614 692.219C157.657 695.262 159.77 697.729 162.42 697.897V697.913H173.498L173.521 697.911ZM174.264 685.264C174.298 685.271 174.333 685.267 174.364 685.252C174.395 685.237 174.42 685.212 174.436 685.181C174.451 685.15 174.456 685.115 174.449 685.081C174.443 685.047 174.425 685.016 174.399 684.993C172.733 683.501 170.64 682.607 168.363 682.607H167.164C164.887 682.607 162.792 683.496 161.129 684.993C161.103 685.016 161.085 685.047 161.079 685.081C161.072 685.115 161.077 685.15 161.092 685.181C161.108 685.212 161.133 685.237 161.164 685.252C161.195 685.267 161.23 685.271 161.264 685.264C161.737 685.156 162.22 685.101 162.705 685.101C164.723 685.101 166.47 685.977 167.643 687.436C167.657 687.455 167.676 687.47 167.697 687.48C167.718 687.49 167.741 687.496 167.765 687.496C167.788 687.496 167.812 687.49 167.833 687.48C167.854 687.47 167.872 687.455 167.887 687.436C169.063 685.977 170.806 685.101 172.824 685.101C173.309 685.101 173.793 685.156 174.266 685.264H174.264Z" fill="#4E51BF"/>
<path d="M178.127 699.927V714.123C178.127 714.222 178.061 714.328 177.962 714.302L177.642 714.191C175.008 712.896 172.668 708.662 172.668 706.004C172.668 702.669 175.865 699.712 177.975 699.77C178.015 699.771 178.054 699.788 178.082 699.817C178.11 699.847 178.126 699.886 178.127 699.927Z" fill="#FF92A4"/>
<path d="M178.127 696.935V697.922C178.127 697.956 178.116 697.988 178.096 698.015C178.076 698.042 178.049 698.061 178.017 698.071C174.498 699.157 171.099 701.807 171.099 706.027C171.099 708.181 172.913 711.687 174.235 713.317C175.156 714.452 175.508 714.305 171.785 714.305H167.612C161.294 714.305 157.404 709.664 157.404 702.76L157.372 696.797C157.372 696.766 157.38 696.736 157.397 696.71C157.413 696.685 157.437 696.664 157.465 696.652C157.493 696.64 157.524 696.636 157.554 696.642C157.584 696.647 157.611 696.661 157.633 696.682C158.372 697.389 160.522 699.313 162.117 699.475C162.215 699.5 162.316 699.512 162.417 699.513H173.207C173.48 699.515 173.752 699.477 174.015 699.402C175.016 699.113 176.864 698.277 177.844 696.849C177.863 696.822 177.89 696.802 177.921 696.791C177.952 696.78 177.985 696.779 178.017 696.789C178.048 696.798 178.076 696.817 178.095 696.844C178.115 696.87 178.126 696.902 178.127 696.935Z" fill="#FFDD83"/>
<path d="M177.918 692.105C177.924 695.04 176.009 697.522 173.523 697.911H173.498H162.425V697.895C159.773 697.727 157.662 695.26 157.624 692.217C157.568 689.245 159.731 686.88 162.343 686.711C164.842 686.547 166.99 688.083 167.613 690.594C167.621 690.628 167.64 690.659 167.668 690.681C167.695 690.703 167.729 690.715 167.764 690.715C167.799 690.715 167.833 690.703 167.861 690.681C167.888 690.659 167.907 690.628 167.915 690.594C168.535 688.095 170.664 686.561 173.149 686.708C175.737 686.86 177.911 689.16 177.918 692.105ZM175.458 692.968C175.646 692.923 175.809 692.805 175.911 692.64C176.013 692.474 176.046 692.275 176.002 692.085C175.857 691.464 175.508 690.911 175.011 690.514C174.514 690.118 173.899 689.903 173.266 689.903C172.632 689.903 172.018 690.118 171.521 690.514C171.024 690.911 170.675 691.464 170.53 692.085C170.492 692.273 170.527 692.468 170.63 692.629C170.732 692.79 170.892 692.904 171.077 692.948C171.262 692.991 171.456 692.961 171.619 692.863C171.782 692.764 171.9 692.606 171.948 692.421C172.018 692.122 172.186 691.855 172.425 691.664C172.665 691.473 172.961 691.369 173.266 691.369C173.571 691.369 173.867 691.473 174.106 691.664C174.346 691.855 174.514 692.122 174.583 692.421C174.628 692.61 174.745 692.774 174.909 692.877C175.073 692.979 175.27 693.012 175.458 692.968ZM168.976 694.973C169.004 694.926 169.015 694.872 169.007 694.818C168.999 694.764 168.974 694.714 168.934 694.677L167.934 693.725C167.889 693.683 167.83 693.659 167.768 693.659C167.707 693.659 167.648 693.683 167.603 693.725L166.601 694.677C166.563 694.715 166.537 694.764 166.53 694.818C166.522 694.872 166.532 694.926 166.559 694.973L167.563 696.698C167.584 696.735 167.614 696.765 167.651 696.786C167.687 696.808 167.729 696.819 167.771 696.819C167.813 696.819 167.854 696.808 167.891 696.786C167.927 696.765 167.958 696.735 167.979 696.698L168.976 694.973ZM164.478 692.968C164.666 692.923 164.829 692.805 164.93 692.64C165.032 692.474 165.065 692.275 165.021 692.085C164.876 691.464 164.527 690.91 164.03 690.514C163.534 690.117 162.918 689.901 162.285 689.901C161.651 689.901 161.036 690.117 160.54 690.514C160.043 690.91 159.694 691.464 159.549 692.085C159.511 692.273 159.547 692.468 159.649 692.629C159.751 692.79 159.912 692.904 160.097 692.948C160.281 692.991 160.476 692.961 160.638 692.863C160.801 692.764 160.919 692.606 160.968 692.421C161.038 692.122 161.206 691.856 161.445 691.665C161.684 691.475 161.98 691.371 162.285 691.371C162.59 691.371 162.886 691.475 163.125 691.665C163.364 691.856 163.532 692.122 163.602 692.421C163.646 692.611 163.764 692.774 163.928 692.877C164.092 692.979 164.29 693.012 164.478 692.968Z" fill="#F4F5FE"/>
<path d="M176.002 692.085C176.04 692.273 176.004 692.468 175.902 692.629C175.8 692.79 175.639 692.904 175.455 692.948C175.27 692.992 175.076 692.961 174.913 692.863C174.75 692.764 174.632 692.606 174.583 692.421C174.514 692.122 174.346 691.855 174.107 691.664C173.867 691.473 173.571 691.369 173.266 691.369C172.961 691.369 172.665 691.473 172.425 691.664C172.186 691.855 172.018 692.122 171.949 692.421C171.9 692.606 171.782 692.764 171.619 692.863C171.456 692.961 171.262 692.992 171.077 692.948C170.893 692.904 170.732 692.79 170.63 692.629C170.528 692.468 170.492 692.273 170.53 692.085C170.675 691.464 171.024 690.911 171.521 690.514C172.018 690.118 172.633 689.903 173.266 689.903C173.899 689.903 174.514 690.118 175.011 690.514C175.508 690.911 175.857 691.464 176.002 692.085Z" fill="#4E51BF"/>
<path d="M174.401 684.993C174.427 685.016 174.445 685.047 174.451 685.081C174.458 685.115 174.453 685.15 174.438 685.181C174.422 685.212 174.397 685.237 174.366 685.252C174.335 685.267 174.3 685.271 174.266 685.264C173.793 685.156 173.31 685.101 172.825 685.101C170.806 685.101 169.059 685.977 167.887 687.436C167.872 687.455 167.854 687.47 167.833 687.48C167.812 687.49 167.788 687.496 167.765 687.496C167.741 687.496 167.718 687.49 167.697 687.48C167.676 687.47 167.658 687.455 167.643 687.436C166.467 685.977 164.723 685.101 162.705 685.101C162.22 685.101 161.737 685.156 161.264 685.264C161.23 685.271 161.195 685.267 161.164 685.252C161.133 685.237 161.108 685.212 161.092 685.181C161.077 685.15 161.072 685.115 161.079 685.081C161.085 685.047 161.103 685.016 161.129 684.993C162.794 683.501 164.888 682.607 167.164 682.607H168.365C170.642 682.607 172.739 683.501 174.401 684.993Z" fill="#FFDD83"/>
<path d="M168.934 694.673C168.974 694.71 168.999 694.76 169.007 694.814C169.014 694.868 169.004 694.922 168.976 694.969L167.976 696.698C167.955 696.735 167.924 696.765 167.888 696.786C167.851 696.808 167.81 696.819 167.768 696.819C167.726 696.819 167.684 696.808 167.648 696.786C167.611 696.765 167.581 696.735 167.56 696.698L166.559 694.975C166.532 694.928 166.522 694.874 166.53 694.82C166.537 694.766 166.563 694.717 166.601 694.679L167.603 693.727C167.648 693.685 167.707 693.661 167.768 693.661C167.83 693.661 167.889 693.685 167.934 693.727L168.934 694.673Z" fill="#4E51BF"/>
<path d="M165.021 692.085C165.059 692.273 165.023 692.468 164.921 692.629C164.818 692.79 164.658 692.904 164.473 692.948C164.289 692.992 164.094 692.961 163.932 692.863C163.769 692.764 163.651 692.606 163.602 692.421C163.532 692.122 163.364 691.856 163.125 691.665C162.886 691.475 162.59 691.371 162.285 691.371C161.98 691.371 161.684 691.475 161.445 691.665C161.206 691.856 161.038 692.122 160.968 692.421C160.919 692.606 160.801 692.764 160.638 692.863C160.476 692.961 160.281 692.992 160.097 692.948C159.912 692.904 159.752 692.79 159.649 692.629C159.547 692.468 159.511 692.273 159.549 692.085C159.694 691.464 160.043 690.91 160.54 690.514C161.036 690.117 161.651 689.901 162.285 689.901C162.919 689.901 163.534 690.117 164.03 690.514C164.527 690.91 164.876 691.464 165.021 692.085Z" fill="#4E51BF"/>
<path d="M191.178 716C190.556 716 190.083 715.91 189.757 715.729C189.604 715.65 189.469 715.539 189.364 715.402C189.258 715.266 189.183 715.107 189.144 714.939C189.057 714.542 189.016 714.136 189.022 713.729V683.32C189.014 682.92 189.064 682.521 189.169 682.135C189.218 681.971 189.3 681.819 189.41 681.687C189.519 681.556 189.654 681.448 189.806 681.37C190.132 681.189 190.606 681.099 191.226 681.099C191.879 681.099 192.361 681.189 192.671 681.37C192.816 681.45 192.943 681.559 193.045 681.691C193.146 681.822 193.219 681.974 193.259 682.135C193.348 682.54 193.389 682.955 193.381 683.37V695.563C194.211 694.602 195.177 693.771 196.247 693.095C197.374 692.371 198.754 692.008 200.387 692.008C202.314 692.008 204.037 692.461 205.556 693.366C207.076 694.271 208.284 695.546 209.182 697.192C210.079 698.837 210.528 700.796 210.529 703.066V713.779C210.537 714.179 210.488 714.578 210.382 714.963C210.29 715.285 210.08 715.558 209.794 715.729C209.5 715.91 209.027 716 208.373 716C207.752 716 207.279 715.91 206.953 715.729C206.798 715.648 206.662 715.536 206.552 715.4C206.443 715.265 206.362 715.107 206.316 714.939C206.212 714.544 206.163 714.137 206.17 713.729V703.017C206.17 701.635 205.941 700.434 205.484 699.413C205.061 698.434 204.351 697.607 203.45 697.044C202.552 696.484 201.416 696.205 200.044 696.205C198.183 696.205 196.656 696.739 195.464 697.809C194.271 698.878 193.577 700.302 193.381 702.079V713.779C193.389 714.179 193.34 714.578 193.234 714.963C193.138 715.29 192.918 715.565 192.622 715.729C192.312 715.91 191.831 716 191.178 716Z" fill="#4E51BF"/>
<path d="M235.076 715.951C234.357 715.951 233.843 715.803 233.533 715.506C233.222 715.21 233.035 714.749 232.969 714.124L233.165 711.656C232.839 712.182 232.332 712.783 231.646 713.458C230.96 714.132 230.062 714.725 228.952 715.235C227.841 715.744 226.486 715.999 224.885 716C223.373 716.012 221.877 715.692 220.5 715.062C219.147 714.439 217.931 713.549 216.924 712.446C215.893 711.324 215.078 710.018 214.523 708.595C213.946 707.118 213.654 705.543 213.666 703.955C213.656 702.391 213.947 700.841 214.523 699.389C215.078 697.982 215.902 696.699 216.948 695.612C217.978 694.537 219.2 693.666 220.549 693.045C221.91 692.419 223.389 692.099 224.885 692.107C226.322 692.107 227.547 692.296 228.56 692.675C229.509 693.018 230.395 693.519 231.181 694.156C231.907 694.756 232.557 695.444 233.116 696.205L233.018 694.131C232.985 693.407 233.14 692.889 233.484 692.576C233.827 692.264 234.374 692.107 235.125 692.107C235.745 692.107 236.195 692.206 236.472 692.403C236.753 692.606 236.953 692.904 237.036 693.243C237.142 693.679 237.192 694.127 237.183 694.575V713.63C237.188 714.047 237.139 714.462 237.036 714.865C236.954 715.204 236.743 715.497 236.448 715.679C236.154 715.86 235.697 715.951 235.076 715.951ZM225.62 711.853C226.894 711.863 228.144 711.503 229.221 710.817C230.312 710.129 231.207 709.168 231.818 708.028C232.455 706.859 232.773 705.518 232.773 704.004C232.773 702.458 232.438 701.101 231.769 699.932C231.133 698.8 230.223 697.849 229.123 697.167C228.041 696.496 226.793 696.145 225.522 696.155C223.987 696.155 222.656 696.509 221.529 697.217C220.411 697.915 219.491 698.893 218.859 700.055C218.206 701.24 217.879 702.589 217.879 704.103C217.879 705.584 218.206 706.909 218.859 708.077C219.498 709.231 220.438 710.188 221.578 710.841C222.738 711.517 224.085 711.854 225.62 711.853Z" fill="#4E51BF"/>
<path d="M250.362 716C249.416 716.01 248.472 715.919 247.545 715.728C246.774 715.572 246.036 715.279 245.365 714.865C244.747 714.473 244.22 713.951 243.822 713.334C243.386 712.641 243.087 711.87 242.94 711.063C242.747 710.038 242.657 708.997 242.67 707.953V683.271C242.662 682.856 242.703 682.442 242.793 682.037C242.834 681.872 242.911 681.719 243.016 681.587C243.122 681.455 243.255 681.347 243.405 681.272C243.732 681.091 244.189 681 244.777 681C245.43 681 245.912 681.082 246.222 681.247C246.369 681.321 246.5 681.425 246.605 681.553C246.711 681.68 246.789 681.828 246.835 681.987C246.94 682.373 246.989 682.772 246.982 683.172V707.904C246.971 708.478 247.037 709.051 247.178 709.607C247.29 710.051 247.5 710.464 247.79 710.817C248.067 711.146 248.433 711.386 248.843 711.508C249.337 711.649 249.849 711.716 250.362 711.705C250.703 711.697 251.042 711.748 251.367 711.853C251.653 711.96 251.889 712.172 252.028 712.446C252.191 712.742 252.272 713.203 252.273 713.828C252.273 714.486 252.191 714.972 252.028 715.284C251.964 715.423 251.872 715.548 251.759 715.65C251.645 715.752 251.511 715.829 251.367 715.877C251.039 715.965 250.701 716.007 250.362 716Z" fill="#4E51BF"/>
<path d="M276.819 715.951C276.1 715.951 275.586 715.803 275.276 715.506C274.965 715.21 274.777 714.749 274.712 714.124L274.908 711.656C274.581 712.182 274.075 712.783 273.389 713.458C272.703 714.132 271.805 714.725 270.695 715.235C269.584 715.744 268.229 715.999 266.628 716C265.116 716.012 263.62 715.692 262.243 715.062C260.89 714.439 259.674 713.549 258.667 712.446C257.636 711.324 256.821 710.018 256.266 708.595C255.688 707.118 255.397 705.543 255.409 703.955C255.399 702.391 255.69 700.841 256.266 699.389C256.821 697.982 257.645 696.699 258.691 695.612C259.721 694.537 260.943 693.666 262.292 693.045C263.653 692.419 265.132 692.099 266.628 692.107C268.065 692.107 269.29 692.296 270.303 692.675C271.252 693.018 272.138 693.519 272.924 694.156C273.65 694.756 274.3 695.444 274.859 696.205L274.761 694.131C274.728 693.407 274.883 692.889 275.227 692.576C275.57 692.264 276.117 692.107 276.868 692.107C277.488 692.107 277.937 692.206 278.215 692.403C278.496 692.606 278.696 692.904 278.779 693.243C278.885 693.679 278.935 694.127 278.926 694.575V713.63C278.931 714.047 278.882 714.462 278.779 714.865C278.697 715.204 278.486 715.497 278.191 715.679C277.897 715.86 277.439 715.951 276.819 715.951ZM267.363 711.853C268.637 711.863 269.887 711.503 270.964 710.817C272.055 710.129 272.95 709.168 273.561 708.028C274.198 706.859 274.516 705.518 274.516 704.004C274.516 702.458 274.181 701.101 273.512 699.932C272.876 698.8 271.966 697.849 270.866 697.167C269.784 696.496 268.536 696.145 267.265 696.155C265.729 696.155 264.398 696.509 263.272 697.217C262.154 697.915 261.234 698.893 260.602 700.055C259.949 701.24 259.622 702.589 259.622 704.103C259.622 705.584 259.949 706.909 260.602 708.077C261.24 709.231 262.181 710.188 263.321 710.841C264.481 711.517 265.828 711.854 267.363 711.853Z" fill="#4E51BF"/>
<path d="M286.52 716C285.898 716 285.433 715.91 285.123 715.729C284.975 715.646 284.846 715.533 284.745 715.397C284.644 715.261 284.572 715.105 284.535 714.939C284.448 714.542 284.407 714.136 284.413 713.729V694.279C284.403 693.863 284.453 693.447 284.56 693.045C284.602 692.891 284.676 692.747 284.777 692.623C284.878 692.5 285.005 692.4 285.148 692.329C285.442 692.181 285.915 692.107 286.569 692.107C287.156 692.107 287.606 692.181 287.916 692.329C288.202 692.453 288.43 692.683 288.553 692.971C288.672 693.278 288.73 693.605 288.724 693.934L288.528 695.415C288.768 694.969 289.038 694.54 289.337 694.131C289.666 693.684 290.062 693.293 290.513 692.971C291.038 692.599 291.616 692.308 292.227 692.107C292.896 691.877 293.721 691.762 294.702 691.762C295.17 691.76 295.637 691.801 296.098 691.885C296.533 691.966 296.96 692.09 297.372 692.255C297.744 692.401 298.098 692.592 298.425 692.823C298.696 693.015 298.936 693.248 299.135 693.514C299.316 693.765 299.411 694.068 299.405 694.378C299.42 695.061 299.175 695.723 298.719 696.229C298.262 696.739 297.788 696.994 297.298 696.994C296.873 696.994 296.563 696.937 296.367 696.822C296.173 696.708 295.985 696.585 295.804 696.451C295.569 696.293 295.314 696.168 295.044 696.081C294.718 695.967 294.195 695.909 293.477 695.908C292.949 695.915 292.427 696.016 291.933 696.205C291.378 696.411 290.858 696.703 290.39 697.068C289.856 697.483 289.427 698.019 289.137 698.632C288.848 699.245 288.706 699.919 288.724 700.598V713.828C288.732 714.228 288.683 714.627 288.577 715.013C288.532 715.172 288.453 715.32 288.348 715.448C288.243 715.575 288.112 715.679 287.965 715.753C287.655 715.917 287.173 715.999 286.52 716Z" fill="#4E51BF"/>
<path d="M321.893 715.951C321.174 715.951 320.66 715.803 320.35 715.506C320.039 715.21 319.852 714.749 319.786 714.124L319.982 711.656C319.656 712.182 319.149 712.783 318.463 713.458C317.778 714.132 316.879 714.725 315.769 715.235C314.658 715.744 313.303 715.999 311.702 716C310.19 716.012 308.694 715.692 307.317 715.062C305.964 714.439 304.748 713.549 303.741 712.446C302.71 711.324 301.896 710.018 301.34 708.595C300.763 707.118 300.472 705.543 300.483 703.955C300.473 702.391 300.764 700.841 301.34 699.389C301.895 697.982 302.719 696.699 303.765 695.612C304.795 694.537 306.017 693.666 307.366 693.045C308.727 692.419 310.207 692.099 311.702 692.107C313.139 692.107 314.364 692.296 315.377 692.675C316.326 693.018 317.212 693.519 317.998 694.156C318.724 694.756 319.374 695.444 319.933 696.205L319.835 694.131C319.802 693.407 319.957 692.889 320.301 692.576C320.644 692.264 321.191 692.107 321.942 692.107C322.562 692.107 323.011 692.206 323.289 692.403C323.571 692.606 323.77 692.904 323.853 693.243C323.959 693.679 324.009 694.127 324 694.575V713.63C324.005 714.047 323.956 714.462 323.853 714.865C323.772 715.204 323.56 715.497 323.265 715.679C322.971 715.86 322.514 715.951 321.893 715.951ZM312.437 711.853C313.711 711.863 314.961 711.503 316.038 710.817C317.129 710.129 318.024 709.168 318.635 708.028C319.272 706.859 319.59 705.518 319.59 704.004C319.59 702.458 319.256 701.101 318.586 699.932C317.95 698.8 317.04 697.849 315.94 697.167C314.858 696.496 313.61 696.145 312.339 696.155C310.803 696.155 309.472 696.509 308.346 697.217C307.228 697.915 306.308 698.893 305.676 700.055C305.023 701.24 304.696 702.589 304.696 704.103C304.696 705.584 305.023 706.909 305.676 708.077C306.315 709.231 307.255 710.188 308.395 710.841C309.555 711.517 310.902 711.854 312.437 711.853Z" fill="#4E51BF"/>
</g>
<defs>
<clipPath id="clip0_74_830">
<rect width="168" height="35" fill="white" transform="translate(156 681)"/>
</clipPath>
</defs>
</svg>
